<?xml version="1.0" encoding="utf-8"?>
<!-- Generator: Adobe Illustrator 16.0.0, SVG Export Plug-In . SVG Version: 6.00 Build 0)  -->
<!DOCTYPE svg PUBLIC "-//W3C//DTD SVG 1.1//EN" "http://www.w3.org/Graphics/SVG/1.1/DTD/svg11.dtd">
<svg version="1.1" id="Capa_1" xmlns="http://www.w3.org/2000/svg" xmlns:xlink="http://www.w3.org/1999/xlink" x="0px" y="0px"
	 width="154px" height="86px" viewBox="0 0 154 86" enable-background="new 0 0 154 86" xml:space="preserve">
<g>
	<path fill="#FFFFFF" d="M10.189,28.74c0.554-0.042,1.088,0.055,1.6,0.288c0.511,0.235,0.969,0.545,1.375,0.928
		c0.405,0.384,0.714,0.843,0.928,1.376c0.213,0.533,0.32,1.077,0.32,1.632v7.357c1.492-0.768,3.039-1.269,4.639-1.504
		c1.599-0.233,3.188-0.233,4.766,0c1.578,0.235,3.113,0.704,4.607,1.408c1.492,0.704,2.879,1.653,4.159,2.848
		c1.492,1.535,2.612,3.188,3.359,4.958c0.746,1.77,1.12,3.786,1.12,6.046c0,2.134-0.416,4.139-1.248,6.015
		c-0.832,1.877-1.952,3.519-3.359,4.927c-1.408,1.407-3.05,2.518-4.927,3.327c-1.878,0.811-3.861,1.216-5.95,1.216
		c-2.047,0-4.01-0.416-5.887-1.247c-1.877-0.833-3.53-1.952-4.958-3.359c-1.43-1.408-2.571-3.05-3.423-4.928
		c-0.854-1.876-1.28-3.859-1.28-5.95V32.644c0-0.512,0.127-1.013,0.383-1.503c0.256-0.49,0.577-0.917,0.96-1.28
		c0.384-0.362,0.821-0.65,1.312-0.864C9.175,28.783,9.677,28.698,10.189,28.74z M14.412,54.077c0,0.982,0.192,1.91,0.576,2.783
		c0.384,0.875,0.906,1.632,1.568,2.272c0.661,0.64,1.417,1.15,2.271,1.536c0.853,0.384,1.77,0.574,2.751,0.574
		c0.938,0,1.844-0.19,2.719-0.574c0.874-0.386,1.642-0.896,2.303-1.536c0.661-0.641,1.184-1.397,1.568-2.272
		c0.383-0.873,0.576-1.801,0.576-2.783c0-0.98-0.192-1.907-0.576-2.783c-0.384-0.873-0.907-1.632-1.568-2.271
		c-0.662-0.64-1.43-1.151-2.303-1.536c-0.875-0.384-1.782-0.576-2.719-0.576c-0.982,0-1.898,0.203-2.751,0.607
		c-0.854,0.406-1.61,0.939-2.271,1.601c-0.662,0.661-1.184,1.43-1.568,2.303C14.604,52.298,14.412,53.183,14.412,54.077z"/>
	<path fill="#FFFFFF" d="M43.779,28.258c1.109,0,2.057,0.418,2.847,1.249c0.789,0.832,1.184,1.802,1.184,2.911
		s-0.395,2.08-1.184,2.911c-0.79,0.832-1.738,1.248-2.847,1.248c-1.238-0.042-2.25-0.437-3.039-1.185
		c-0.79-0.745-1.184-1.801-1.184-3.167c0.042-1.107,0.479-2.047,1.312-2.814C41.699,28.643,42.669,28.258,43.779,28.258z"/>
	<path fill="#FFFFFF" d="M43.779,38.786c1.109,0,2.036,0.406,2.783,1.216c0.746,0.811,1.162,1.791,1.248,2.942v22.65
		c0,1.151-0.363,2.11-1.087,2.879c-0.726,0.767-1.707,1.194-2.943,1.28c-1.11,0-2.048-0.342-2.815-1.023
		c-0.768-0.683-1.237-1.642-1.407-2.881v-23.16c0.085-1.109,0.533-2.026,1.343-2.752C41.709,39.213,42.669,38.828,43.779,38.786z"/>
	<path fill="#FFFFFF" d="M55.359,69.625c-1.151,0-2.111-0.372-2.879-1.119c-0.768-0.746-1.194-1.738-1.28-2.976V53.693
		c0.042-2.048,0.48-3.977,1.312-5.79c0.832-1.812,1.94-3.391,3.327-4.734c1.386-1.345,3.007-2.41,4.862-3.2
		c1.855-0.787,3.828-1.226,5.918-1.312c1.194,0,2.186,0.406,2.976,1.216c0.789,0.812,1.226,1.792,1.312,2.943
		c0,1.151-0.407,2.123-1.216,2.912c-0.811,0.789-1.813,1.205-3.007,1.247c-0.981,0-1.898,0.183-2.751,0.543
		c-0.854,0.363-1.599,0.865-2.239,1.505c-0.64,0.639-1.151,1.397-1.536,2.271c-0.384,0.876-0.576,1.824-0.576,2.848v11.645
		c-0.086,1.11-0.502,2.027-1.248,2.752C57.588,69.264,56.596,69.625,55.359,69.625z"/>
	<path fill="#FFFFFF" d="M86.711,38.321c2.089,0,4.072,0.405,5.95,1.215c1.876,0.811,3.519,1.92,4.926,3.327
		c1.408,1.407,2.528,3.05,3.359,4.927c0.832,1.878,1.248,3.882,1.248,6.015s-0.395,4.137-1.183,6.015
		c-0.79,1.877-1.878,3.519-3.264,4.926c-1.387,1.408-3.029,2.518-4.927,3.326c-1.898,0.812-3.935,1.217-6.11,1.217
		c-2.646,0-5.034-0.533-7.166-1.6v7.358c0,1.109-0.407,2.067-1.216,2.879c-0.811,0.81-1.814,1.216-3.007,1.216
		c-1.067,0-2.016-0.375-2.848-1.119c-0.832-0.748-1.27-1.676-1.311-2.784V53.805c0-2.09,0.416-4.073,1.247-5.951
		c0.832-1.877,1.952-3.52,3.359-4.926c1.408-1.408,3.049-2.528,4.927-3.359C82.573,38.736,84.577,38.321,86.711,38.321z
		 M79.545,53.805c0,1.066,0.191,2.037,0.576,2.91c0.384,0.875,0.905,1.632,1.568,2.272c0.66,0.64,1.428,1.142,2.302,1.503
		c0.874,0.363,1.781,0.544,2.72,0.544c1.023,0,1.961-0.192,2.815-0.576c0.853-0.384,1.599-0.905,2.24-1.567
		c0.639-0.66,1.14-1.429,1.503-2.304c0.362-0.873,0.544-1.801,0.544-2.782s-0.192-1.909-0.576-2.783
		c-0.384-0.875-0.896-1.632-1.535-2.272c-0.64-0.64-1.387-1.141-2.24-1.503c-0.854-0.362-1.77-0.543-2.75-0.543
		c-1.024,0-1.974,0.19-2.848,0.575c-0.875,0.384-1.631,0.896-2.271,1.535c-0.64,0.64-1.142,1.387-1.504,2.239
		C79.725,51.906,79.545,52.823,79.545,53.805z"/>
	<path fill="#FFFFFF" d="M108.912,28.258c1.108,0,2.058,0.418,2.848,1.249c0.789,0.832,1.184,1.802,1.184,2.911
		s-0.395,2.08-1.184,2.911c-0.79,0.832-1.739,1.248-2.848,1.248c-1.237-0.042-2.25-0.437-3.039-1.185
		c-0.79-0.745-1.184-1.801-1.184-3.167c0.042-1.107,0.48-2.047,1.312-2.814C106.832,28.643,107.802,28.258,108.912,28.258z"/>
	<path fill="#FFFFFF" d="M108.912,38.786c1.108,0,2.037,0.406,2.783,1.216c0.746,0.811,1.162,1.791,1.248,2.942v22.65
		c0,1.151-0.363,2.11-1.088,2.879c-0.726,0.767-1.707,1.194-2.943,1.28c-1.11,0-2.047-0.342-2.815-1.023
		c-0.768-0.683-1.238-1.642-1.408-2.881v-23.16c0.085-1.109,0.533-2.026,1.344-2.752C106.842,39.213,107.802,38.828,108.912,38.786z
		"/>
	<path fill="#FFFFFF" d="M132.073,38.401c2.047,0,4.009,0.374,5.887,1.12c1.876,0.747,3.519,1.791,4.926,3.136
		c1.408,1.344,2.538,2.933,3.391,4.766c0.853,1.835,1.28,3.817,1.28,5.95V65.21c0,1.11-0.395,2.069-1.184,2.88
		c-0.79,0.811-1.759,1.237-2.911,1.279c-1.152,0-2.144-0.373-2.976-1.119c-0.832-0.746-1.247-1.696-1.247-2.848V53.886
		c0-0.98-0.183-1.908-0.544-2.784c-0.363-0.873-0.875-1.631-1.536-2.271c-0.662-0.64-1.429-1.151-2.304-1.536
		c-0.875-0.384-1.823-0.575-2.847-0.575c-0.938,0-1.834,0.182-2.687,0.544c-0.854,0.362-1.599,0.843-2.239,1.439
		c-0.64,0.598-1.152,1.323-1.536,2.175c-0.384,0.854-0.576,1.75-0.576,2.688V65.21c0,1.11-0.427,2.079-1.28,2.912
		c-0.854,0.832-1.834,1.247-2.943,1.247c-1.11,0-2.09-0.384-2.942-1.15c-0.854-0.77-1.28-1.706-1.28-2.816V53.886
		c0.042-2.132,0.457-4.137,1.247-6.014c0.79-1.878,1.876-3.521,3.263-4.928c1.386-1.407,3.017-2.516,4.895-3.327
		C127.807,38.808,129.854,38.401,132.073,38.401z"/>
	<path fill="#FFFFFF" d="M106.25,24.593c0.112-0.392,0.136-1.335,0.136-1.354c-0.039-0.737-0.269-1.396-0.66-1.98
		c-0.518-0.964-1.245-1.737-1.665-2.17c-1.003-1.034-10.203-10.852-27.886-10.852S49.246,18.22,48.404,19.088
		c-0.419,0.433-1.124,1.206-1.642,2.17c-0.391,0.584-0.61,1.243-0.647,1.98c-0.002,0.02,0.028,0.963,0.14,1.354
		c0.178,0.757,0.522,1.383,1.041,1.873c0.789,0.746,1.801,1.141,3.039,1.183c0.992,0,1.854-0.335,2.591-1l0.001,0.002
		c0,0,7.675-10.308,23.213-10.308S99.365,26.65,99.365,26.65v-0.002c0.781,0.665,1.708,1,2.701,1
		c1.237-0.042,2.303-0.437,3.091-1.183C105.675,25.976,106.072,25.35,106.25,24.593z"/>
</g>
</svg>
