<?xml version="1.0" encoding="utf-8"?>
<!-- Generator: Adobe Illustrator 16.0.0, SVG Export Plug-In . SVG Version: 6.00 Build 0)  -->
<!DOCTYPE svg PUBLIC "-//W3C//DTD SVG 1.1//EN" "http://www.w3.org/Graphics/SVG/1.1/DTD/svg11.dtd">
<svg version="1.1" id="Capa_1" xmlns="http://www.w3.org/2000/svg" xmlns:xlink="http://www.w3.org/1999/xlink" x="0px" y="0px"
	 width="139px" height="101px" viewBox="0 0 139 101" enable-background="new 0 0 139 101" xml:space="preserve">
<g>
	<path fill="#FFFFFF" d="M105.891,8.745c-1.342-0.774-2.866-1.185-4.406-1.185c-3.15,0-6.085,1.692-7.658,4.418L83.669,29.572
		c3.284,5.96,6.44,11.69,6.476,11.754c0.706,1.273,1.95,2.034,3.326,2.034c0.647,0,1.275-0.167,1.869-0.496l0.049-0.026
		c0.495-0.274,1.184-0.657,1.627-1.057l12.108-20.972C111.559,16.593,110.108,11.181,105.891,8.745z"/>
	<path fill="#FFFFFF" d="M93.471,44.645c-1.852,0-3.515-1.008-4.451-2.696c-0.031-0.058-3.736-6.783-7.301-13.252
		c-0.087-0.051-0.167-0.115-0.224-0.205c-0.377-0.595-0.914-1.096-1.554-1.448c-0.593-0.33-1.221-0.497-1.866-0.497
		c-1.372,0-2.612,0.761-3.318,2.035c-0.043,0.077-3.098,5.617-6.576,11.927l6.923,12.48c1.557,2.808,4.521,4.553,7.737,4.553
		c1.487,0,2.966-0.384,4.275-1.109c1.396-0.772,2.201-1.854,3.051-3.348l5.501-8.944C94.973,44.471,94.219,44.645,93.471,44.645z"/>
	<path fill="#FFFFFF" d="M55.486,46.963c-0.062-0.106-16.479-28.646-17.177-29.86c-1.573-2.724-4.499-4.416-7.635-4.416
		c-1.535,0-3.056,0.409-4.398,1.185c-4.211,2.431-5.654,7.844-3.217,12.064l18.664,32.313c1.572,2.725,4.509,4.418,7.661,4.418
		c1.541,0,3.065-0.41,4.407-1.185c1.247-0.721,2.168-1.739,3.079-3.407l4.998-8.883c-0.621,0.256-1.281,0.389-1.943,0.389
		C58.092,49.581,56.431,48.603,55.486,46.963z"/>
	<path fill="#FFFFFF" d="M74.77,16.824c-0.857-1.507-1.663-2.592-3.031-3.351c-1.309-0.726-2.787-1.108-4.274-1.108
		c-3.216,0-6.181,1.744-7.737,4.552l-9.839,17.738c3.564,6.197,6.677,11.607,6.71,11.665c0.715,1.237,1.958,1.977,3.328,1.977
		c0.669,0,1.338-0.184,1.938-0.53c0.72-0.415,1.302-0.941,1.641-1.482c0.018-0.028,0.043-0.048,0.063-0.072
		c4.639-8.413,10.03-18.192,10.065-18.256c0.936-1.688,2.596-2.695,4.441-2.695c0.587,0,1.177,0.107,1.739,0.314L74.77,16.824z"/>
</g>
<g>
	<g>
		<g>
			<path fill="#FFFFFF" d="M15.853,90.342c-0.154-0.153-0.23-0.35-0.23-0.592V68.377c0-0.242,0.076-0.443,0.23-0.609
				c0.152-0.164,0.352-0.246,0.592-0.246h4.514c0.24,0,0.443,0.082,0.607,0.246c0.166,0.166,0.249,0.367,0.249,0.609v7.804h7.771
				v-7.804c0-0.242,0.081-0.443,0.245-0.609c0.166-0.164,0.37-0.246,0.611-0.246h4.478c0.242,0,0.445,0.082,0.61,0.246
				c0.163,0.166,0.246,0.367,0.246,0.609V89.75c0,0.242-0.083,0.438-0.246,0.592c-0.165,0.154-0.368,0.23-0.61,0.23h-4.478
				c-0.241,0-0.445-0.076-0.611-0.23c-0.164-0.153-0.245-0.35-0.245-0.592v-8.069h-7.771v8.069c0,0.242-0.083,0.438-0.249,0.592
				c-0.164,0.154-0.367,0.23-0.607,0.23h-4.514C16.204,90.572,16.005,90.496,15.853,90.342z"/>
			<path fill="#FFFFFF" d="M41.094,88.631c-1.79-1.517-2.738-3.732-2.849-6.652c-0.021-0.594-0.032-1.56-0.032-2.898
				c0-1.361,0.011-2.349,0.032-2.963c0.11-2.855,1.07-5.057,2.883-6.604c1.811-1.549,4.264-2.322,7.358-2.322
				c1.954,0,3.705,0.318,5.254,0.955c1.548,0.638,2.771,1.559,3.67,2.766c0.901,1.208,1.373,2.636,1.417,4.281
				c0,0.198-0.071,0.362-0.214,0.494c-0.143,0.131-0.312,0.197-0.51,0.197h-4.677c-0.308,0-0.533-0.06-0.675-0.181
				c-0.144-0.12-0.27-0.345-0.379-0.675c-0.309-1.075-0.774-1.828-1.399-2.256c-0.625-0.429-1.454-0.643-2.487-0.643
				c-2.48,0-3.765,1.383-3.853,4.149c-0.022,0.593-0.033,1.506-0.033,2.735c0,1.229,0.011,2.16,0.033,2.796
				c0.088,2.767,1.372,4.151,3.853,4.151c1.009,0,1.84-0.221,2.487-0.659s1.114-1.187,1.399-2.239
				c0.087-0.33,0.208-0.554,0.362-0.675c0.153-0.12,0.384-0.182,0.691-0.182h4.677c0.197,0,0.367,0.065,0.51,0.198
				c0.143,0.131,0.214,0.295,0.214,0.493c-0.044,1.647-0.516,3.074-1.417,4.282c-0.898,1.207-2.122,2.128-3.67,2.766
				c-1.549,0.637-3.3,0.955-5.254,0.955C45.347,90.902,42.884,90.145,41.094,88.631z"/>
		</g>
	</g>
	<g>
		<path fill="#FFFFFF" d="M64.004,90.955c-0.133-0.144-0.199-0.326-0.199-0.548V68.699c0-0.243,0.066-0.437,0.199-0.582
			c0.135-0.144,0.312-0.215,0.532-0.215h8.41c2.505,0,4.472,0.604,5.901,1.811c1.43,1.209,2.144,2.965,2.144,5.27
			s-0.714,4.056-2.144,5.252c-1.43,1.197-3.396,1.795-5.901,1.795h-5.983v8.378c0,0.222-0.071,0.404-0.215,0.548
			c-0.146,0.145-0.327,0.217-0.55,0.217h-1.662C64.315,91.172,64.139,91.1,64.004,90.955z M72.78,79.338
			c3.347,0,5.02-1.451,5.02-4.355c0-1.418-0.415-2.504-1.246-3.258c-0.832-0.753-2.09-1.13-3.773-1.13h-5.817v8.743H72.78z"/>
		<path fill="#FFFFFF" d="M79.427,90.973c-0.134-0.133-0.199-0.288-0.199-0.466l0.065-0.366l8.245-21.508
			c0.177-0.486,0.532-0.73,1.063-0.73h2.128c0.531,0,0.885,0.244,1.063,0.73l8.244,21.508l0.066,0.366
			c0,0.178-0.073,0.333-0.217,0.466c-0.143,0.133-0.305,0.199-0.481,0.199h-1.562c-0.222,0-0.403-0.061-0.549-0.184
			c-0.145-0.121-0.238-0.249-0.282-0.382L95.15,85.82H84.147l-1.829,4.786c-0.178,0.378-0.453,0.565-0.83,0.565h-1.597
			C79.715,91.172,79.561,91.105,79.427,90.973z M85.111,83.061h9.108l-4.555-11.934L85.111,83.061z"/>
		<path fill="#FFFFFF" d="M105.471,90.955c-0.145-0.144-0.217-0.326-0.217-0.548v-7.878l-8.01-13.53
			c-0.067-0.133-0.101-0.276-0.101-0.433c0-0.177,0.066-0.332,0.199-0.465s0.288-0.199,0.466-0.199h1.596
			c0.398,0,0.687,0.188,0.864,0.564l6.582,10.871l6.548-10.871c0.223-0.377,0.51-0.564,0.864-0.564h1.596
			c0.177,0,0.338,0.066,0.481,0.199c0.145,0.133,0.218,0.288,0.218,0.465c0,0.111-0.045,0.256-0.134,0.433l-8.011,13.53v7.878
			c0,0.222-0.072,0.404-0.217,0.548c-0.145,0.145-0.337,0.217-0.581,0.217h-1.597C105.797,91.172,105.615,91.1,105.471,90.955z"/>
	</g>
</g>
</svg>
