<?xml version="1.0" encoding="utf-8"?>
<!-- Generator: Adobe Illustrator 16.0.0, SVG Export Plug-In . SVG Version: 6.00 Build 0)  -->
<!DOCTYPE svg PUBLIC "-//W3C//DTD SVG 1.1//EN" "http://www.w3.org/Graphics/SVG/1.1/DTD/svg11.dtd">
<svg version="1.1" id="Capa_1" xmlns="http://www.w3.org/2000/svg" xmlns:xlink="http://www.w3.org/1999/xlink" x="0px" y="0px"
	 width="154.841px" height="82.619px" viewBox="0 0 154.841 82.619" enable-background="new 0 0 154.841 82.619"
	 xml:space="preserve">
<g>
	<g>
		<g>
			<path fill="#EE7F80" d="M103.084,44.85c-2.377,4.115-7.641,5.527-11.758,3.149l0,0c-4.115-2.376-5.527-7.64-3.15-11.756
				l16.948-29.354c2.377-4.116,7.641-5.526,11.758-3.151l0,0c4.116,2.377,5.527,7.641,3.15,11.757L103.084,44.85z"/>
			<path fill="#FFFFFF" d="M95.622,49.738c-1.605,0-3.191-0.427-4.587-1.234c-2.125-1.227-3.646-3.208-4.282-5.58
				c-0.635-2.372-0.309-4.848,0.919-6.974l16.947-29.353C106.255,3.762,109.308,2,112.586,2c1.604,0,3.191,0.427,4.587,1.233
				c4.388,2.534,5.896,8.165,3.363,12.555l-16.948,29.354C101.952,47.977,98.899,49.738,95.622,49.738z M112.586,3.167
				c-2.862,0-5.528,1.537-6.957,4.013L88.682,36.535c-1.072,1.855-1.357,4.018-0.802,6.087c0.555,2.071,1.883,3.8,3.739,4.871
				c1.22,0.705,2.604,1.077,4.003,1.077c2.861,0,5.526-1.538,6.956-4.013l16.948-29.354c2.211-3.831,0.894-8.747-2.938-10.959
				C115.37,3.54,113.985,3.167,112.586,3.167z"/>
		</g>
		<g>
			<path fill="#34A3C2" d="M107.127,35.748c-2.016,1.118-4.319,0.389-5.435-1.625c-0.055-0.099-12.486-22.738-12.486-22.738
				c-2.306-4.158-7.484-5.66-11.642-3.356c-4.158,2.305-5.631,7.543-3.325,11.7l13.865,24.99c2.305,4.157,7.55,5.659,11.708,3.354
				c1.432-0.793,2.081-1.935,2.836-3.262l6.343-10.574v-0.002C108.756,34.85,107.796,35.377,107.127,35.748z"/>
			<path fill="#FFFFFF" d="M95.649,49.738c-3.345,0-6.43-1.815-8.049-4.737L73.74,20.012c-1.191-2.147-1.478-4.629-0.807-6.988
				c0.671-2.361,2.222-4.316,4.368-5.506c1.362-0.755,2.896-1.153,4.438-1.153c3.326,0,6.398,1.815,8.018,4.737
				c0,0,12.459,22.618,12.526,22.739c0.641,1.157,1.771,1.848,3.021,1.848c0.588,0,1.159-0.152,1.698-0.451l0.044-0.024
				c0.585-0.325,1.474-0.816,1.774-1.292c0.138-0.219,0.404-0.321,0.655-0.249c0.249,0.072,0.421,0.301,0.421,0.561
				c0,0.108-0.03,0.215-0.086,0.309l-6.502,10.573c-0.838,1.474-1.709,2.637-3.211,3.467C98.737,49.338,97.199,49.738,95.649,49.738
				z M81.74,7.532c-1.345,0-2.683,0.348-3.872,1.007c-1.873,1.038-3.227,2.744-3.812,4.805c-0.585,2.06-0.336,4.226,0.705,6.104
				l13.861,24.988c1.414,2.55,4.107,4.136,7.028,4.136c1.351,0,2.694-0.349,3.884-1.008c1.268-0.702,2-1.684,2.771-3.041
				l4.998-8.125c-0.632,0.301-1.317,0.459-1.996,0.459c-1.682,0-3.193-0.916-4.043-2.45c-0.054-0.098-12.018-21.815-12.526-22.74
				C87.323,9.116,84.641,7.532,81.74,7.532z"/>
		</g>
		<g>
			<path fill="#EB625D" d="M93.237,20.354c-2.015-1.116-4.356-0.389-5.474,1.626c-0.054,0.098-15.086,27.396-15.086,27.396
				c-2.306,4.156-7.495,5.659-11.652,3.354c-4.157-2.305-5.635-7.543-3.331-11.7L74.14,11.384c2.304-4.157,7.549-5.659,11.706-3.355
				c1.433,0.794,2.16,1.937,2.916,3.263l6.033,10.575v0.002C94.322,21.254,93.907,20.726,93.237,20.354z"/>
			<path fill="#FFFFFF" d="M65.188,54.395c-1.542,0-3.077-0.4-4.438-1.155c-4.423-2.451-6.022-8.056-3.562-12.494L73.631,11.1
				c1.62-2.921,4.705-4.735,8.05-4.735c1.55,0,3.087,0.398,4.449,1.153c1.641,0.91,2.513,2.275,3.202,3.484l6.095,10.572
				c0.05,0.088,0.078,0.189,0.078,0.292c0,0.259-0.173,0.489-0.421,0.562c-0.25,0.074-0.517-0.027-0.655-0.247
				c-0.343-0.54-0.831-0.995-1.412-1.315c-0.539-0.3-1.109-0.452-1.695-0.452c-1.246,0-2.373,0.691-3.014,1.849
				c-0.091,0.163-14.953,27.122-15.104,27.394C71.583,52.58,68.512,54.395,65.188,54.395z M81.681,7.532
				c-2.921,0-5.615,1.584-7.029,4.135L58.208,41.312c-2.146,3.874-0.753,8.767,3.108,10.907c1.189,0.659,2.528,1.008,3.872,1.008
				c2.899,0,5.58-1.585,6.994-4.136c0.614-1.113,15.049-27.298,15.104-27.396c0.85-1.533,2.358-2.449,4.035-2.449
				c0.533,0,1.069,0.098,1.58,0.286l-4.583-7.95c-0.779-1.369-1.511-2.354-2.753-3.043C84.375,7.88,83.032,7.532,81.681,7.532z"/>
		</g>
		<g>
			<path fill="#2888AD" d="M76.83,40.196c-1.994,1.152-4.402,0.469-5.554-1.526c-0.057-0.098-15.588-27.126-15.588-27.126
				c-2.377-4.116-7.605-5.527-11.722-3.15c-4.117,2.376-5.509,7.641-3.133,11.757l16.958,29.354
				c2.376,4.117,7.645,5.527,11.761,3.152c1.419-0.819,2.229-1.981,2.962-3.32l5.952-10.678v-0.002
				C77.992,39.275,77.494,39.814,76.83,40.196z"/>
			<path fill="#FFFFFF" d="M65.257,54.395c-3.28,0-6.333-1.762-7.971-4.597L40.332,20.444c-2.536-4.393-1.033-10.025,3.35-12.556
				c1.396-0.807,2.98-1.232,4.58-1.232c3.265,0,6.309,1.761,7.946,4.596c0.156,0.271,15.532,27.003,15.603,27.125
				c0.649,1.124,1.779,1.796,3.023,1.796c0.608,0,1.215-0.167,1.761-0.482c0.654-0.377,1.183-0.855,1.491-1.347
				c0.138-0.22,0.405-0.324,0.656-0.25c0.25,0.072,0.421,0.301,0.421,0.562c0,0.099-0.025,0.2-0.075,0.287l-6.009,10.68
				c-0.618,1.133-1.55,2.565-3.233,3.539C68.447,53.968,66.862,54.395,65.257,54.395z M48.261,7.824
				c-1.395,0-2.776,0.372-3.996,1.076c-3.825,2.208-5.137,7.125-2.922,10.96l16.955,29.354c1.428,2.475,4.096,4.014,6.959,4.014
				c1.4,0,2.785-0.373,4.003-1.076c1.133-0.655,1.97-1.58,2.797-3.095l4.541-8.069c-0.564,0.232-1.164,0.353-1.766,0.353
				c-1.666,0-3.175-0.889-4.033-2.378c-0.057-0.097-14.97-26.022-15.604-27.126C53.767,9.361,51.109,7.824,48.261,7.824z"/>
		</g>
	</g>
	<g>
		<g>
			<path fill="#515050" d="M25.522,78.692c-0.134-0.134-0.201-0.305-0.201-0.516v-18.62c0-0.21,0.066-0.387,0.201-0.53
				c0.133-0.144,0.306-0.215,0.516-0.215h3.931c0.21,0,0.387,0.071,0.53,0.215c0.145,0.144,0.216,0.32,0.216,0.53v6.799h6.771
				v-6.799c0-0.21,0.072-0.387,0.214-0.53c0.144-0.144,0.321-0.215,0.532-0.215h3.901c0.21,0,0.388,0.071,0.531,0.215
				c0.144,0.144,0.215,0.32,0.215,0.53v18.62c0,0.211-0.072,0.382-0.215,0.516c-0.143,0.134-0.32,0.201-0.531,0.201h-3.901
				c-0.21,0-0.388-0.066-0.532-0.201c-0.143-0.134-0.214-0.305-0.214-0.516v-7.03h-6.771v7.03c0,0.211-0.072,0.382-0.216,0.516
				c-0.143,0.134-0.319,0.201-0.53,0.201h-3.931C25.828,78.893,25.655,78.827,25.522,78.692z"/>
			<path fill="#515050" d="M47.512,77.201c-1.56-1.321-2.386-3.251-2.482-5.795c-0.019-0.517-0.027-1.358-0.027-2.525
				c0-1.186,0.009-2.046,0.027-2.582c0.097-2.488,0.933-4.405,2.512-5.753c1.577-1.349,3.715-2.023,6.411-2.023
				c1.702,0,3.228,0.277,4.577,0.832c1.349,0.556,2.414,1.357,3.198,2.41c0.785,1.052,1.196,2.296,1.234,3.729
				c0,0.173-0.062,0.316-0.187,0.431c-0.124,0.114-0.272,0.172-0.444,0.172h-4.074c-0.269,0-0.465-0.052-0.588-0.158
				c-0.126-0.104-0.235-0.301-0.33-0.588c-0.269-0.937-0.675-1.592-1.22-1.965c-0.545-0.374-1.267-0.56-2.167-0.56
				c-2.161,0-3.28,1.205-3.357,3.615c-0.019,0.517-0.028,1.312-0.028,2.382s0.01,1.882,0.028,2.437
				c0.077,2.411,1.196,3.616,3.357,3.616c0.879,0,1.602-0.192,2.167-0.574c0.564-0.382,0.971-1.033,1.22-1.951
				c0.076-0.287,0.181-0.482,0.315-0.588c0.134-0.105,0.334-0.158,0.603-0.158h4.074c0.172,0,0.32,0.057,0.444,0.172
				c0.125,0.114,0.187,0.258,0.187,0.43c-0.038,1.435-0.449,2.678-1.234,3.73c-0.784,1.052-1.849,1.854-3.198,2.409
				c-1.349,0.555-2.875,0.832-4.577,0.832C51.218,79.18,49.072,78.521,47.512,77.201z"/>
		</g>
		<g>
			<path fill="#515050" d="M68.239,78.123l-3.702-18.448l-0.058-0.315c0-0.153,0.058-0.287,0.173-0.402
				c0.114-0.115,0.248-0.172,0.401-0.172h1.406c0.402,0,0.631,0.162,0.688,0.488l2.955,14.975l3.185-10.327
				c0.114-0.459,0.411-0.689,0.89-0.689h1.003c0.459,0,0.765,0.23,0.919,0.689l3.154,10.327l2.955-14.975
				c0.058-0.326,0.297-0.488,0.718-0.488h1.377c0.152,0,0.287,0.057,0.402,0.172c0.115,0.115,0.172,0.249,0.172,0.402
				c0,0.115-0.01,0.22-0.028,0.315L81.12,78.123c-0.097,0.497-0.393,0.746-0.889,0.746h-1.034c-0.478,0-0.795-0.241-0.947-0.718
				l-3.558-11.045l-3.586,11.045c-0.134,0.477-0.441,0.718-0.918,0.718h-1.061C68.649,78.869,68.354,78.62,68.239,78.123z"/>
			<path fill="#515050" d="M88.092,77.189c-1.358-1.309-2.076-3.284-2.152-5.924c-0.02-0.572-0.028-1.386-0.028-2.439
				c0-1.051,0.009-1.854,0.028-2.41c0.076-2.601,0.818-4.571,2.224-5.911c1.405-1.338,3.304-2.007,5.694-2.007
				c2.391,0,4.285,0.669,5.681,2.007c1.396,1.339,2.132,3.31,2.209,5.911c0.038,1.11,0.057,1.913,0.057,2.41
				c0,0.478-0.019,1.292-0.057,2.439c-0.077,2.64-0.79,4.615-2.138,5.924c-1.349,1.312-3.266,1.966-5.752,1.966
				C91.372,79.156,89.45,78.501,88.092,77.189z M97.531,75.383c0.917-0.927,1.415-2.348,1.492-4.26
				c0.037-1.148,0.056-1.913,0.056-2.296c0-0.42-0.019-1.185-0.056-2.295c-0.077-1.912-0.575-3.337-1.492-4.274
				c-0.919-0.938-2.144-1.406-3.673-1.406c-1.53,0-2.759,0.468-3.686,1.406c-0.929,0.937-1.421,2.363-1.479,4.274
				c-0.019,0.555-0.028,1.32-0.028,2.295c0,0.957,0.01,1.722,0.028,2.296c0.058,1.913,0.547,3.333,1.464,4.26
				c0.918,0.928,2.152,1.392,3.701,1.392C95.388,76.774,96.612,76.311,97.531,75.383z"/>
			<path fill="#515050" d="M104.501,78.682c-0.114-0.124-0.171-0.282-0.171-0.474V59.475c0-0.21,0.057-0.378,0.171-0.502
				c0.114-0.124,0.268-0.186,0.459-0.186h7c2.18,0,3.887,0.512,5.121,1.534c1.234,1.024,1.851,2.511,1.851,4.462
				c0,1.454-0.363,2.65-1.09,3.586c-0.727,0.937-1.74,1.589-3.041,1.951l4.417,7.66c0.059,0.115,0.087,0.22,0.087,0.315
				c0,0.155-0.058,0.288-0.173,0.402c-0.114,0.116-0.249,0.173-0.4,0.173h-1.263c-0.287,0-0.513-0.067-0.675-0.202
				c-0.164-0.133-0.312-0.325-0.444-0.574l-4.218-7.345h-5.107v7.459c0,0.192-0.067,0.35-0.201,0.474
				c-0.134,0.125-0.297,0.188-0.487,0.188h-1.378C104.77,78.869,104.616,78.807,104.501,78.682z M111.847,68.397
				c2.888,0,4.331-1.215,4.331-3.644c0-2.429-1.443-3.645-4.331-3.645h-4.82v7.288H111.847z"/>
			<path fill="#515050" d="M121.543,78.682c-0.114-0.124-0.173-0.282-0.173-0.474V59.475c0-0.21,0.059-0.378,0.173-0.502
				c0.116-0.124,0.268-0.186,0.459-0.186h1.348c0.211,0,0.378,0.062,0.502,0.186c0.124,0.125,0.187,0.292,0.187,0.502v7.143
				l7.775-7.372c0.306-0.307,0.679-0.459,1.119-0.459h1.435c0.152,0,0.288,0.057,0.402,0.172c0.114,0.115,0.172,0.249,0.172,0.402
				c0,0.153-0.048,0.277-0.144,0.372l-8.951,8.666l9.555,9.495c0.096,0.116,0.143,0.25,0.143,0.402c0,0.155-0.057,0.288-0.173,0.402
				c-0.115,0.116-0.248,0.173-0.4,0.173h-1.492c-0.269,0-0.479-0.043-0.631-0.129c-0.154-0.087-0.315-0.197-0.488-0.331l-8.32-8.119
				v7.917c0,0.192-0.067,0.35-0.201,0.474c-0.135,0.125-0.297,0.188-0.489,0.188h-1.348
				C121.811,78.869,121.659,78.807,121.543,78.682z"/>
		</g>
	</g>
</g>
</svg>
