<?xml version="1.0" encoding="utf-8"?>
<!-- Generator: Adobe Illustrator 16.0.0, SVG Export Plug-In . SVG Version: 6.00 Build 0)  -->
<!DOCTYPE svg PUBLIC "-//W3C//DTD SVG 1.1//EN" "http://www.w3.org/Graphics/SVG/1.1/DTD/svg11.dtd">
<svg version="1.1" id="Capa_1" xmlns="http://www.w3.org/2000/svg" xmlns:xlink="http://www.w3.org/1999/xlink" x="0px" y="0px"
	 width="139px" height="101px" viewBox="0 0 139 101" enable-background="new 0 0 139 101" xml:space="preserve">
<path fill="#FFFFFF" d="M109.678,9.588c-1.342-0.774-2.866-1.185-4.406-1.185c-3.15,0-6.085,1.692-7.658,4.418L87.456,30.415
	c3.284,5.96,6.44,11.69,6.476,11.754c0.706,1.273,1.95,2.034,3.326,2.034c0.647,0,1.275-0.167,1.869-0.496l0.049-0.026
	c0.495-0.274,1.184-0.657,1.627-1.057l12.108-20.972C115.346,17.436,113.896,12.023,109.678,9.588z"/>
<path fill="#FFFFFF" d="M97.258,45.487c-1.852,0-3.515-1.008-4.451-2.696c-0.031-0.058-3.736-6.783-7.301-13.252
	c-0.087-0.051-0.167-0.115-0.224-0.205c-0.377-0.595-0.914-1.096-1.554-1.448c-0.593-0.33-1.221-0.497-1.866-0.497
	c-1.372,0-2.612,0.761-3.318,2.035c-0.043,0.077-3.098,5.617-6.576,11.927l6.923,12.48c1.557,2.808,4.521,4.553,7.737,4.553
	c1.487,0,2.966-0.384,4.275-1.109c1.396-0.772,2.201-1.854,3.051-3.348l5.501-8.944C98.76,45.313,98.006,45.487,97.258,45.487z"/>
<path fill="#FFFFFF" d="M59.273,47.806c-0.062-0.106-16.479-28.646-17.177-29.86c-1.573-2.724-4.499-4.416-7.635-4.416
	c-1.535,0-3.056,0.409-4.398,1.185c-4.211,2.431-5.654,7.844-3.217,12.064l18.664,32.313c1.572,2.725,4.509,4.418,7.661,4.418
	c1.541,0,3.065-0.41,4.407-1.185c1.247-0.721,2.168-1.739,3.079-3.407l4.998-8.883c-0.621,0.256-1.281,0.389-1.943,0.389
	C61.879,50.424,60.218,49.445,59.273,47.806z"/>
<path fill="#FFFFFF" d="M78.557,17.667c-0.857-1.507-1.663-2.592-3.031-3.351c-1.309-0.726-2.787-1.108-4.274-1.108
	c-3.216,0-6.181,1.744-7.737,4.552l-9.839,17.738c3.564,6.197,6.677,11.607,6.71,11.665c0.715,1.237,1.958,1.977,3.328,1.977
	c0.669,0,1.338-0.184,1.938-0.53c0.72-0.415,1.302-0.941,1.641-1.482c0.018-0.028,0.043-0.048,0.063-0.072
	c4.639-8.413,10.03-18.192,10.065-18.256c0.936-1.688,2.596-2.695,4.441-2.695c0.587,0,1.177,0.107,1.739,0.314L78.557,17.667z"/>
<g>
	<g>
		<path fill="#FFFFFF" d="M9.431,91.542c-0.147-0.147-0.221-0.336-0.221-0.568V70.477c0-0.231,0.073-0.426,0.221-0.584
			c0.146-0.158,0.337-0.236,0.568-0.236h4.327c0.231,0,0.426,0.078,0.583,0.236c0.159,0.158,0.238,0.353,0.238,0.584v7.484h7.453
			v-7.484c0-0.231,0.079-0.426,0.236-0.584c0.158-0.158,0.354-0.236,0.585-0.236h4.295c0.231,0,0.427,0.078,0.584,0.236
			c0.158,0.158,0.237,0.353,0.237,0.584v20.497c0,0.232-0.079,0.421-0.237,0.568c-0.157,0.147-0.353,0.221-0.584,0.221h-4.295
			c-0.231,0-0.427-0.073-0.585-0.221c-0.157-0.147-0.236-0.336-0.236-0.568v-7.738h-7.453v7.738c0,0.232-0.079,0.421-0.238,0.568
			c-0.157,0.147-0.352,0.221-0.583,0.221H9.999C9.768,91.763,9.577,91.689,9.431,91.542z"/>
		<path fill="#FFFFFF" d="M33.638,89.9c-1.717-1.454-2.626-3.579-2.732-6.38c-0.021-0.568-0.03-1.495-0.03-2.779
			c0-1.306,0.01-2.252,0.03-2.842c0.106-2.738,1.026-4.849,2.765-6.333c1.736-1.484,4.09-2.227,7.058-2.227
			c1.874,0,3.553,0.305,5.038,0.916s2.657,1.494,3.521,2.652c0.864,1.158,1.316,2.527,1.358,4.105c0,0.19-0.068,0.348-0.205,0.475
			c-0.137,0.125-0.3,0.189-0.489,0.189h-4.484c-0.296,0-0.512-0.058-0.647-0.174c-0.139-0.115-0.259-0.331-0.363-0.647
			c-0.296-1.031-0.743-1.753-1.343-2.163c-0.6-0.411-1.395-0.616-2.385-0.616c-2.379,0-3.61,1.326-3.695,3.979
			c-0.021,0.568-0.031,1.443-0.031,2.622s0.011,2.072,0.031,2.683c0.085,2.653,1.316,3.98,3.695,3.98
			c0.968,0,1.764-0.211,2.385-0.632s1.069-1.138,1.343-2.147c0.084-0.316,0.199-0.531,0.347-0.647
			c0.147-0.115,0.368-0.174,0.664-0.174h4.484c0.189,0,0.353,0.062,0.489,0.189c0.137,0.126,0.205,0.284,0.205,0.474
			c-0.042,1.579-0.494,2.948-1.358,4.106c-0.863,1.158-2.035,2.041-3.521,2.652c-1.485,0.61-3.164,0.916-5.038,0.916
			C37.717,92.079,35.354,91.353,33.638,89.9z"/>
	</g>
	<g>
		<path fill="#FFFFFF" d="M56.454,90.915l-4.075-20.308l-0.063-0.347c0-0.169,0.063-0.316,0.19-0.442
			c0.126-0.127,0.272-0.189,0.441-0.189h1.548c0.442,0,0.695,0.179,0.758,0.537l3.253,16.484l3.506-11.368
			c0.126-0.506,0.452-0.759,0.979-0.759h1.104c0.505,0,0.842,0.253,1.012,0.759L68.58,86.65l3.253-16.484
			c0.063-0.358,0.327-0.537,0.79-0.537h1.516c0.168,0,0.316,0.062,0.442,0.189c0.127,0.126,0.189,0.273,0.189,0.442
			c0,0.126-0.011,0.242-0.031,0.347l-4.105,20.308c-0.106,0.547-0.433,0.821-0.979,0.821h-1.138c-0.526,0-0.875-0.265-1.042-0.79
			l-3.917-12.158l-3.947,12.158c-0.147,0.525-0.485,0.79-1.011,0.79h-1.168C56.905,91.736,56.58,91.462,56.454,90.915z"/>
		<path fill="#FFFFFF" d="M78.309,89.888c-1.495-1.441-2.285-3.615-2.369-6.521c-0.021-0.63-0.031-1.525-0.031-2.685
			c0-1.157,0.01-2.041,0.031-2.652c0.084-2.863,0.9-5.032,2.448-6.507c1.547-1.473,3.637-2.209,6.269-2.209s4.717,0.736,6.254,2.209
			c1.536,1.475,2.347,3.644,2.432,6.507c0.041,1.222,0.062,2.105,0.062,2.652c0,0.526-0.021,1.422-0.062,2.685
			c-0.085,2.906-0.869,5.08-2.354,6.521c-1.484,1.443-3.595,2.164-6.332,2.164S79.804,91.331,78.309,89.888z M88.699,87.898
			c1.01-1.021,1.558-2.584,1.643-4.689c0.041-1.264,0.062-2.105,0.062-2.527c0-0.463-0.021-1.305-0.062-2.526
			c-0.085-2.104-0.633-3.674-1.643-4.705c-1.012-1.032-2.359-1.548-4.043-1.548c-1.685,0-3.037,0.516-4.058,1.548
			c-1.022,1.031-1.564,2.601-1.628,4.705c-0.021,0.611-0.031,1.453-0.031,2.526c0,1.054,0.011,1.896,0.031,2.527
			c0.063,2.105,0.602,3.669,1.611,4.689c1.011,1.021,2.369,1.532,4.074,1.532C86.34,89.431,87.688,88.92,88.699,87.898z"/>
		<path fill="#FFFFFF" d="M96.372,91.53c-0.126-0.137-0.188-0.311-0.188-0.521V70.387c0-0.231,0.062-0.416,0.188-0.553
			s0.295-0.205,0.506-0.205h7.706c2.399,0,4.279,0.563,5.637,1.688c1.358,1.127,2.037,2.764,2.037,4.912
			c0,1.601-0.399,2.917-1.2,3.947c-0.8,1.031-1.915,1.749-3.347,2.147l4.862,8.433c0.064,0.126,0.096,0.242,0.096,0.347
			c0,0.17-0.063,0.316-0.19,0.442c-0.126,0.127-0.273,0.19-0.44,0.19h-1.39c-0.316,0-0.564-0.074-0.743-0.222
			c-0.18-0.146-0.343-0.357-0.489-0.632l-4.643-8.085h-5.622v8.211c0,0.211-0.073,0.385-0.221,0.521
			c-0.147,0.138-0.327,0.206-0.536,0.206h-1.517C96.667,91.736,96.498,91.668,96.372,91.53z M104.458,80.209
			c3.179,0,4.768-1.337,4.768-4.011s-1.589-4.012-4.768-4.012h-5.307v8.022H104.458z"/>
		<path fill="#FFFFFF" d="M115.132,91.53c-0.126-0.137-0.19-0.311-0.19-0.521V70.387c0-0.231,0.064-0.416,0.19-0.553
			c0.127-0.137,0.295-0.205,0.505-0.205h1.484c0.232,0,0.416,0.068,0.553,0.205s0.206,0.321,0.206,0.553v7.863l8.559-8.115
			c0.337-0.338,0.747-0.506,1.231-0.506h1.579c0.168,0,0.316,0.062,0.442,0.189c0.126,0.126,0.189,0.273,0.189,0.442
			c0,0.168-0.053,0.305-0.158,0.409l-9.854,9.539l10.518,10.452c0.105,0.128,0.157,0.275,0.157,0.442c0,0.17-0.062,0.316-0.19,0.442
			c-0.126,0.127-0.272,0.19-0.44,0.19h-1.643c-0.296,0-0.527-0.048-0.695-0.142c-0.169-0.096-0.347-0.217-0.537-0.364l-9.158-8.938
			v8.716c0,0.211-0.074,0.385-0.221,0.521c-0.148,0.138-0.327,0.206-0.538,0.206h-1.484
			C115.427,91.736,115.259,91.668,115.132,91.53z"/>
	</g>
</g>
</svg>
