<?xml version="1.0" encoding="utf-8"?>
<!-- Generator: Adobe Illustrator 16.0.0, SVG Export Plug-In . SVG Version: 6.00 Build 0)  -->
<!DOCTYPE svg PUBLIC "-//W3C//DTD SVG 1.1//EN" "http://www.w3.org/Graphics/SVG/1.1/DTD/svg11.dtd">
<svg version="1.1" id="Capa_1" xmlns="http://www.w3.org/2000/svg" xmlns:xlink="http://www.w3.org/1999/xlink" x="0px" y="0px"
	 width="308.81px" height="96.111px" viewBox="0 0 308.81 96.111" enable-background="new 0 0 308.81 96.111" xml:space="preserve">
<g>
	<g>
		<path fill="#FFFFFF" d="M22.284,68.508c-0.635,0-1.157,0.13-1.564,0.389s-0.611,0.651-0.611,1.175
			c0,0.525,0.204,0.926,0.611,1.203c0.407,0.278,1.274,0.578,2.601,0.898c1.326,0.321,2.326,0.771,2.999,1.352
			c0.672,0.58,1.009,1.435,1.009,2.564c0,1.129-0.426,2.045-1.277,2.748s-1.969,1.056-3.351,1.056c-2.024,0-3.819-0.697-5.387-2.092
			l1.37-1.647c1.308,1.135,2.666,1.703,4.073,1.703c0.703,0,1.261-0.15,1.675-0.453s0.62-0.704,0.62-1.204
			c0-0.499-0.194-0.889-0.583-1.167c-0.389-0.277-1.058-0.529-2.008-0.758c-0.951-0.229-1.673-0.438-2.166-0.629
			c-0.494-0.192-0.932-0.441-1.314-0.75c-0.765-0.58-1.148-1.469-1.148-2.666s0.436-2.119,1.305-2.768
			c0.87-0.648,1.947-0.973,3.23-0.973c0.827,0,1.647,0.137,2.462,0.408c0.815,0.271,1.518,0.654,2.11,1.147l-1.166,1.647
			c-0.383-0.346-0.901-0.629-1.555-0.852C23.565,68.619,22.92,68.508,22.284,68.508z"/>
		<path fill="#FFFFFF" d="M31.457,74.414v5.332h-2.073v-9.85h2.073v1.796c0.296-0.604,0.743-1.079,1.342-1.425
			c0.598-0.346,1.243-0.519,1.935-0.519c1.555,0,2.61,0.642,3.166,1.925c0.975-1.283,2.19-1.925,3.646-1.925
			c1.111,0,2.009,0.339,2.694,1.019c0.685,0.678,1.027,1.66,1.027,2.943v6.035h-2.074v-5.406c0-1.814-0.752-2.721-2.258-2.721
			c-0.704,0-1.317,0.225-1.842,0.676c-0.525,0.45-0.799,1.107-0.824,1.971v5.48h-2.074v-5.406c0-0.938-0.167-1.626-0.5-2.064
			c-0.333-0.438-0.858-0.656-1.573-0.656c-0.716,0-1.339,0.237-1.87,0.713C31.722,72.806,31.457,73.5,31.457,74.414z"/>
		<path fill="#FFFFFF" d="M55.782,79.746h-1.888v-1.314c-0.814,0.975-1.907,1.462-3.277,1.462c-1.024,0-1.873-0.29-2.545-0.87
			c-0.673-0.58-1.009-1.354-1.009-2.323s0.358-1.694,1.074-2.175c0.715-0.481,1.685-0.723,2.906-0.723h2.685v-0.369
			c0-1.309-0.729-1.963-2.185-1.963c-0.914,0-1.864,0.333-2.851,1l-0.925-1.297c1.197-0.949,2.555-1.425,4.073-1.425
			c1.16,0,2.107,0.293,2.841,0.879c0.734,0.587,1.102,1.509,1.102,2.769V79.746z M53.708,76.08v-0.834h-2.333
			c-1.494,0-2.24,0.471-2.24,1.408c0,0.48,0.186,0.848,0.556,1.102c0.37,0.252,0.885,0.379,1.546,0.379
			c0.66,0,1.237-0.186,1.73-0.556S53.708,76.708,53.708,76.08z"/>
		<path fill="#FFFFFF" d="M63.482,71.84c-1.024,0-1.795,0.333-2.314,0.999c-0.518,0.667-0.777,1.562-0.777,2.685v4.222h-2.074v-9.85
			h2.074v1.981c0.333-0.617,0.787-1.123,1.36-1.519c0.574-0.395,1.182-0.598,1.824-0.61l0.019,2.092
			C63.557,71.84,63.52,71.84,63.482,71.84z"/>
		<path fill="#FFFFFF" d="M67.87,71.562v4.999c0,0.47,0.123,0.843,0.37,1.12s0.592,0.416,1.037,0.416s0.87-0.216,1.278-0.647
			l0.851,1.462c-0.728,0.654-1.534,0.981-2.416,0.981c-0.883,0-1.635-0.306-2.259-0.917c-0.623-0.61-0.935-1.434-0.935-2.471v-4.943
			h-1.24v-1.666h1.24v-3.092h2.073v3.092h2.592v1.666H67.87z"/>
		<path fill="#FFFFFF" d="M84.438,76.802c0,0.938-0.339,1.688-1.018,2.248c-0.679,0.562-1.549,0.843-2.61,0.843
			c-0.716,0-1.459-0.13-2.23-0.39c-0.771-0.258-1.453-0.623-2.045-1.092l1-1.609c1.148,0.863,2.258,1.295,3.332,1.295
			c0.469,0,0.839-0.107,1.111-0.324c0.271-0.215,0.407-0.49,0.407-0.823c0-0.493-0.654-0.938-1.962-1.333
			c-0.099-0.037-0.173-0.062-0.222-0.074c-2.049-0.555-3.073-1.48-3.073-2.777c0-0.912,0.354-1.644,1.064-2.193
			c0.709-0.549,1.632-0.823,2.767-0.823c1.136,0,2.209,0.333,3.221,0.999l-0.777,1.537c-0.802-0.531-1.672-0.797-2.61-0.797
			c-0.494,0-0.895,0.09-1.204,0.27c-0.309,0.179-0.463,0.447-0.463,0.805c0,0.321,0.16,0.556,0.481,0.703
			c0.222,0.111,0.534,0.217,0.935,0.315c0.4,0.099,0.756,0.198,1.064,0.296c0.308,0.1,0.607,0.21,0.898,0.333
			c0.29,0.124,0.601,0.296,0.935,0.519C84.104,75.172,84.438,75.864,84.438,76.802z"/>
		<path fill="#FFFFFF" d="M94.675,78.421c-0.987,0.98-2.222,1.472-3.703,1.472s-2.715-0.491-3.702-1.472s-1.481-2.182-1.481-3.602
			c0-1.418,0.494-2.619,1.481-3.6c0.987-0.981,2.221-1.472,3.702-1.472s2.715,0.49,3.703,1.472c0.987,0.98,1.481,2.182,1.481,3.6
			C96.156,76.24,95.662,77.441,94.675,78.421z M88.742,77.144c0.586,0.599,1.33,0.897,2.23,0.897s1.645-0.299,2.231-0.897
			c0.586-0.599,0.879-1.373,0.879-2.324c0-0.949-0.293-1.724-0.879-2.322c-0.586-0.599-1.33-0.898-2.231-0.898
			s-1.645,0.3-2.23,0.898c-0.586,0.599-0.879,1.373-0.879,2.322C87.862,75.771,88.155,76.545,88.742,77.144z"/>
		<path fill="#FFFFFF" d="M100.229,79.746h-2.074V66.009h2.074V79.746z"/>
		<path fill="#FFFFFF" d="M109.762,75.228v-5.332h2.073v9.85h-2.073v-1.797c-0.333,0.605-0.793,1.08-1.379,1.426
			c-0.586,0.346-1.219,0.519-1.897,0.519c-1.111,0-2.009-0.339-2.694-1.019c-0.685-0.678-1.027-1.659-1.027-2.943v-6.035h2.073
			v5.406c0,1.814,0.752,2.721,2.259,2.721c0.715,0,1.339-0.236,1.87-0.713C109.496,76.835,109.762,76.142,109.762,75.228z"/>
		<path fill="#FFFFFF" d="M117.037,71.562v4.999c0,0.47,0.123,0.843,0.37,1.12c0.247,0.277,0.592,0.416,1.037,0.416
			s0.87-0.216,1.277-0.647l0.852,1.462c-0.729,0.654-1.534,0.981-2.416,0.981s-1.635-0.306-2.258-0.917
			c-0.624-0.61-0.935-1.434-0.935-2.471v-4.943h-1.24v-1.666h1.24v-3.092h2.074v3.092h2.591v1.666H117.037z"/>
		<path fill="#FFFFFF" d="M121.998,67.934c-0.259-0.259-0.389-0.567-0.389-0.926c0-0.357,0.13-0.666,0.389-0.925
			c0.259-0.26,0.567-0.389,0.926-0.389c0.357,0,0.667,0.129,0.925,0.389c0.259,0.259,0.389,0.567,0.389,0.925
			c0,0.358-0.129,0.667-0.389,0.926c-0.259,0.259-0.568,0.39-0.925,0.39C122.565,68.324,122.257,68.193,121.998,67.934z
			 M123.942,79.746h-2.073v-9.85h2.073V79.746z"/>
		<path fill="#FFFFFF" d="M134.827,78.421c-0.988,0.98-2.221,1.472-3.703,1.472c-1.481,0-2.715-0.491-3.702-1.472
			c-0.988-0.98-1.481-2.182-1.481-3.602c0-1.418,0.493-2.619,1.481-3.6c0.987-0.981,2.221-1.472,3.702-1.472
			c1.481,0,2.715,0.49,3.703,1.472c0.987,0.98,1.481,2.182,1.481,3.6C136.308,76.24,135.814,77.441,134.827,78.421z M128.894,77.144
			c0.586,0.599,1.33,0.897,2.23,0.897s1.645-0.299,2.231-0.897c0.586-0.599,0.879-1.373,0.879-2.324
			c0-0.949-0.293-1.724-0.879-2.322c-0.586-0.599-1.33-0.898-2.231-0.898s-1.645,0.3-2.23,0.898
			c-0.586,0.599-0.879,1.373-0.879,2.322C128.014,75.771,128.307,76.545,128.894,77.144z"/>
		<path fill="#FFFFFF" d="M140.38,74.414v5.332h-2.073v-9.85h2.073v1.796c0.333-0.604,0.792-1.079,1.379-1.425
			c0.586-0.346,1.219-0.519,1.898-0.519c1.11,0,2.008,0.339,2.693,1.019c0.685,0.678,1.028,1.66,1.028,2.943v6.035h-2.073v-5.406
			c0-1.814-0.753-2.721-2.259-2.721c-0.716,0-1.339,0.237-1.87,0.713C140.646,72.806,140.38,73.5,140.38,74.414z"/>
		<path fill="#FFFFFF" d="M156.911,76.802c0,0.938-0.339,1.688-1.019,2.248c-0.679,0.562-1.548,0.843-2.609,0.843
			c-0.716,0-1.459-0.13-2.231-0.39c-0.771-0.258-1.453-0.623-2.045-1.092l1-1.609c1.148,0.863,2.259,1.295,3.332,1.295
			c0.469,0,0.839-0.107,1.111-0.324c0.271-0.215,0.407-0.49,0.407-0.823c0-0.493-0.654-0.938-1.962-1.333
			c-0.099-0.037-0.173-0.062-0.222-0.074c-2.049-0.555-3.073-1.48-3.073-2.777c0-0.912,0.354-1.644,1.064-2.193
			c0.709-0.549,1.632-0.823,2.768-0.823c1.135,0,2.208,0.333,3.221,0.999l-0.777,1.537c-0.803-0.531-1.673-0.797-2.61-0.797
			c-0.494,0-0.895,0.09-1.204,0.27c-0.308,0.179-0.462,0.447-0.462,0.805c0,0.321,0.16,0.556,0.481,0.703
			c0.222,0.111,0.534,0.217,0.935,0.315c0.4,0.099,0.756,0.198,1.064,0.296c0.309,0.1,0.607,0.21,0.898,0.333
			c0.289,0.124,0.602,0.296,0.935,0.519C156.578,75.172,156.911,75.864,156.911,76.802z"/>
		<path fill="#FFFFFF" d="M166.167,69.082v0.814h2.592v1.666h-2.592v8.184h-2.073v-8.184h-1.24v-1.666h1.24v-0.758
			c0-1.037,0.312-1.861,0.935-2.472c0.623-0.611,1.376-0.917,2.259-0.917c0.882,0,1.688,0.327,2.416,0.981l-0.852,1.462
			c-0.408-0.432-0.834-0.647-1.277-0.647c-0.444,0-0.79,0.139-1.037,0.417C166.29,68.24,166.167,68.613,166.167,69.082z"/>
		<path fill="#FFFFFF" d="M178.403,78.421c-0.987,0.98-2.222,1.472-3.702,1.472c-1.481,0-2.715-0.491-3.702-1.472
			c-0.988-0.98-1.481-2.182-1.481-3.602c0-1.418,0.493-2.619,1.481-3.6c0.987-0.981,2.221-1.472,3.702-1.472
			c1.48,0,2.715,0.49,3.702,1.472c0.987,0.98,1.481,2.182,1.481,3.6C179.885,76.24,179.391,77.441,178.403,78.421z M172.47,77.144
			c0.586,0.599,1.33,0.897,2.231,0.897c0.9,0,1.644-0.299,2.23-0.897c0.586-0.599,0.88-1.373,0.88-2.324
			c0-0.949-0.294-1.724-0.88-2.322c-0.587-0.599-1.33-0.898-2.23-0.898c-0.901,0-1.646,0.3-2.231,0.898s-0.879,1.373-0.879,2.322
			C171.591,75.771,171.884,76.545,172.47,77.144z"/>
		<path fill="#FFFFFF" d="M187.029,71.84c-1.023,0-1.795,0.333-2.313,0.999c-0.519,0.667-0.777,1.562-0.777,2.685v4.222h-2.074
			v-9.85h2.074v1.981c0.333-0.617,0.786-1.123,1.36-1.519c0.574-0.395,1.182-0.598,1.823-0.61l0.019,2.092
			C187.104,71.84,187.067,71.84,187.029,71.84z"/>
		<path fill="#FFFFFF" d="M198.858,69.749c1.32,0,2.449,0.456,3.388,1.37c0.938,0.913,1.407,2.129,1.407,3.646
			s-0.467,2.752-1.398,3.702s-2.018,1.426-3.258,1.426s-2.354-0.543-3.342-1.629v1.481h-2.073V66.009h2.073v5.609
			C196.471,70.372,197.537,69.749,198.858,69.749z M195.619,74.839c0,0.938,0.283,1.706,0.852,2.305
			c0.567,0.599,1.259,0.897,2.073,0.897s1.524-0.296,2.129-0.888c0.604-0.593,0.906-1.361,0.906-2.305
			c0-0.945-0.295-1.729-0.888-2.352s-1.303-0.936-2.129-0.936c-0.827,0-1.524,0.312-2.092,0.936
			C195.902,73.121,195.619,73.902,195.619,74.839z"/>
		<path fill="#FFFFFF" d="M212.539,75.228v-5.332h2.073v9.85h-2.073v-1.797c-0.333,0.605-0.793,1.08-1.379,1.426
			s-1.219,0.519-1.897,0.519c-1.111,0-2.009-0.339-2.693-1.019c-0.686-0.678-1.027-1.659-1.027-2.943v-6.035h2.073v5.406
			c0,1.814,0.752,2.721,2.258,2.721c0.716,0,1.34-0.236,1.87-0.713C212.273,76.835,212.539,76.142,212.539,75.228z"/>
		<path fill="#FFFFFF" d="M224.275,76.802c0,0.938-0.34,1.688-1.019,2.248c-0.679,0.562-1.549,0.843-2.609,0.843
			c-0.717,0-1.46-0.13-2.231-0.39c-0.771-0.258-1.453-0.623-2.045-1.092l1-1.609c1.147,0.863,2.258,1.295,3.332,1.295
			c0.469,0,0.839-0.107,1.11-0.324c0.271-0.215,0.407-0.49,0.407-0.823c0-0.493-0.654-0.938-1.962-1.333
			c-0.1-0.037-0.174-0.062-0.223-0.074c-2.049-0.555-3.073-1.48-3.073-2.777c0-0.912,0.355-1.644,1.065-2.193
			c0.709-0.549,1.631-0.823,2.768-0.823c1.135,0,2.208,0.333,3.221,0.999l-0.777,1.537c-0.803-0.531-1.673-0.797-2.61-0.797
			c-0.494,0-0.895,0.09-1.204,0.27c-0.308,0.179-0.462,0.447-0.462,0.805c0,0.321,0.16,0.556,0.481,0.703
			c0.222,0.111,0.533,0.217,0.935,0.315c0.4,0.099,0.756,0.198,1.064,0.296c0.309,0.1,0.607,0.21,0.897,0.333
			c0.29,0.124,0.603,0.296,0.936,0.519C223.942,75.172,224.275,75.864,224.275,76.802z"/>
		<path fill="#FFFFFF" d="M226.386,67.934c-0.259-0.259-0.389-0.567-0.389-0.926c0-0.357,0.13-0.666,0.389-0.925
			c0.259-0.26,0.567-0.389,0.926-0.389c0.357,0,0.666,0.129,0.926,0.389c0.259,0.259,0.389,0.567,0.389,0.925
			c0,0.358-0.13,0.667-0.389,0.926c-0.26,0.259-0.568,0.39-0.926,0.39C226.953,68.324,226.645,68.193,226.386,67.934z
			 M228.33,79.746h-2.073v-9.85h2.073V79.746z"/>
		<path fill="#FFFFFF" d="M233.05,74.414v5.332h-2.073v-9.85h2.073v1.796c0.333-0.604,0.793-1.079,1.379-1.425
			s1.219-0.519,1.897-0.519c1.11,0,2.009,0.339,2.694,1.019c0.685,0.678,1.027,1.66,1.027,2.943v6.035h-2.074v-5.406
			c0-1.814-0.753-2.721-2.259-2.721c-0.716,0-1.339,0.237-1.869,0.713C233.315,72.806,233.05,73.5,233.05,74.414z"/>
		<path fill="#FFFFFF" d="M251.747,75.728h-7.72c0.05,0.716,0.377,1.293,0.981,1.73c0.604,0.438,1.295,0.657,2.073,0.657
			c1.233,0,2.172-0.389,2.813-1.166l1.186,1.296c-1.062,1.098-2.444,1.647-4.147,1.647c-1.382,0-2.558-0.46-3.526-1.379
			c-0.969-0.92-1.453-2.153-1.453-3.702s0.493-2.78,1.48-3.693c0.988-0.914,2.15-1.37,3.49-1.37c1.338,0,2.477,0.404,3.416,1.212
			c0.937,0.809,1.406,1.923,1.406,3.342V75.728z M244.027,74.099h5.646c0-0.827-0.258-1.463-0.777-1.907
			c-0.518-0.444-1.156-0.667-1.915-0.667c-0.76,0-1.441,0.232-2.046,0.695C244.329,72.683,244.027,73.309,244.027,74.099z"/>
		<path fill="#FFFFFF" d="M260.67,76.802c0,0.938-0.34,1.688-1.019,2.248c-0.679,0.562-1.549,0.843-2.61,0.843
			c-0.716,0-1.46-0.13-2.23-0.39c-0.771-0.258-1.453-0.623-2.046-1.092l1-1.609c1.147,0.863,2.259,1.295,3.332,1.295
			c0.469,0,0.839-0.107,1.11-0.324c0.271-0.215,0.407-0.49,0.407-0.823c0-0.493-0.653-0.938-1.962-1.333
			c-0.099-0.037-0.173-0.062-0.223-0.074c-2.048-0.555-3.072-1.48-3.072-2.777c0-0.912,0.354-1.644,1.063-2.193
			c0.71-0.549,1.633-0.823,2.769-0.823s2.209,0.333,3.221,0.999l-0.777,1.537c-0.802-0.531-1.672-0.797-2.61-0.797
			c-0.493,0-0.895,0.09-1.203,0.27c-0.309,0.179-0.463,0.447-0.463,0.805c0,0.321,0.16,0.556,0.481,0.703
			c0.222,0.111,0.534,0.217,0.935,0.315c0.401,0.099,0.756,0.198,1.064,0.296c0.309,0.1,0.608,0.21,0.898,0.333
			c0.289,0.124,0.602,0.296,0.935,0.519C260.336,75.172,260.67,75.864,260.67,76.802z"/>
		<path fill="#FFFFFF" d="M269.667,76.802c0,0.938-0.34,1.688-1.019,2.248c-0.679,0.562-1.549,0.843-2.61,0.843
			c-0.716,0-1.46-0.13-2.23-0.39c-0.771-0.258-1.453-0.623-2.046-1.092l1-1.609c1.147,0.863,2.259,1.295,3.332,1.295
			c0.469,0,0.839-0.107,1.11-0.324c0.271-0.215,0.408-0.49,0.408-0.823c0-0.493-0.654-0.938-1.962-1.333
			c-0.1-0.037-0.174-0.062-0.224-0.074c-2.048-0.555-3.072-1.48-3.072-2.777c0-0.912,0.354-1.644,1.064-2.193
			c0.709-0.549,1.632-0.823,2.768-0.823s2.209,0.333,3.221,0.999l-0.777,1.537c-0.802-0.531-1.672-0.797-2.61-0.797
			c-0.493,0-0.895,0.09-1.203,0.27c-0.309,0.179-0.463,0.447-0.463,0.805c0,0.321,0.16,0.556,0.481,0.703
			c0.222,0.111,0.534,0.217,0.935,0.315c0.401,0.099,0.757,0.198,1.064,0.296c0.309,0.1,0.608,0.21,0.898,0.333
			c0.289,0.124,0.602,0.296,0.935,0.519C269.334,75.172,269.667,75.864,269.667,76.802z"/>
		<path fill="#FFFFFF" d="M280.811,75.728h-7.72c0.05,0.716,0.377,1.293,0.981,1.73c0.604,0.438,1.296,0.657,2.073,0.657
			c1.234,0,2.172-0.389,2.813-1.166l1.186,1.296c-1.062,1.098-2.443,1.647-4.146,1.647c-1.382,0-2.559-0.46-3.526-1.379
			c-0.97-0.92-1.454-2.153-1.454-3.702s0.494-2.78,1.481-3.693c0.987-0.914,2.15-1.37,3.489-1.37s2.478,0.404,3.416,1.212
			c0.938,0.809,1.406,1.923,1.406,3.342V75.728z M273.091,74.099h5.646c0-0.827-0.259-1.463-0.777-1.907s-1.157-0.667-1.916-0.667
			s-1.441,0.232-2.046,0.695S273.091,73.309,273.091,74.099z"/>
		<path fill="#FFFFFF" d="M289.752,76.802c0,0.938-0.34,1.688-1.019,2.248c-0.679,0.562-1.549,0.843-2.609,0.843
			c-0.717,0-1.46-0.13-2.231-0.39c-0.771-0.258-1.453-0.623-2.046-1.092l1-1.609c1.147,0.863,2.259,1.295,3.332,1.295
			c0.469,0,0.839-0.107,1.11-0.324c0.272-0.215,0.408-0.49,0.408-0.823c0-0.493-0.654-0.938-1.962-1.333
			c-0.1-0.037-0.174-0.062-0.223-0.074c-2.049-0.555-3.073-1.48-3.073-2.777c0-0.912,0.354-1.644,1.064-2.193
			c0.71-0.549,1.632-0.823,2.768-0.823s2.209,0.333,3.221,0.999l-0.777,1.537c-0.802-0.531-1.672-0.797-2.609-0.797
			c-0.494,0-0.896,0.09-1.204,0.27c-0.308,0.179-0.463,0.447-0.463,0.805c0,0.321,0.16,0.556,0.481,0.703
			c0.222,0.111,0.534,0.217,0.935,0.315c0.401,0.099,0.757,0.198,1.064,0.296c0.309,0.1,0.608,0.21,0.898,0.333
			c0.289,0.124,0.602,0.296,0.935,0.519C289.419,75.172,289.752,75.864,289.752,76.802z"/>
	</g>
	<g>
		<path fill="#FFFFFF" d="M113.143,40.085l5.696-18.466h7.488l5.65,18.466l6.385-18.466h7.763l-11.208,32.109h-5.329l-7.028-22.325
			l-6.982,22.325h-5.329L99.041,21.619h7.763L113.143,40.085z"/>
		<path fill="#FFFFFF" d="M174.649,49.295c-3.247,3.169-7.243,4.754-11.989,4.754c-4.747,0-8.744-1.585-11.989-4.754
			c-3.246-3.169-4.869-7.112-4.869-11.828c0-4.715,1.623-8.659,4.869-11.828c3.246-3.169,7.242-4.754,11.989-4.754
			c4.746,0,8.742,1.585,11.989,4.754c3.246,3.169,4.869,7.113,4.869,11.828C179.519,42.183,177.896,46.125,174.649,49.295z
			 M172.215,37.49c0-2.863-0.919-5.306-2.756-7.327c-1.838-2.021-4.097-3.032-6.775-3.032c-2.681,0-4.938,1.011-6.776,3.032
			c-1.836,2.021-2.755,4.464-2.755,7.327c0,2.864,0.919,5.298,2.755,7.304c1.838,2.006,4.096,3.009,6.776,3.009
			c2.679,0,4.938-1.003,6.775-3.009C171.296,42.788,172.215,40.354,172.215,37.49z"/>
		<path fill="#FFFFFF" d="M209.835,32.276c0,5.145-2.037,8.467-6.109,9.968l8.13,11.484h-8.819l-7.119-10.244h-4.961v10.244h-7.166
			V21.619h12.172c4.992,0,8.552,0.843,10.681,2.526C208.771,25.83,209.835,28.541,209.835,32.276z M201.199,36.089
			c0.888-0.796,1.332-2.06,1.332-3.79s-0.459-2.917-1.378-3.56s-2.526-0.965-4.823-0.965h-5.374v9.509h5.236
			C198.642,37.283,200.311,36.885,201.199,36.089z"/>
		<path fill="#FFFFFF" d="M215.392,21.619h7.167v13.184l12.126-13.184h8.865l-12.77,14.194c1.103,1.532,3.139,4.387,6.109,8.567
			c2.97,4.18,5.19,7.296,6.66,9.348h-8.359l-9.417-12.678l-3.215,3.583v9.096h-7.167V21.619z"/>
		<path fill="#FFFFFF" d="M246.214,21.619h7.167v32.109h-7.167V21.619z"/>
		<path fill="#FFFFFF" d="M282.364,53.728l-2.986-6.937H265.92l-2.986,6.937h-7.625l13.872-32.109h6.937l13.872,32.109H282.364z
			 M272.672,31.174l-4.042,9.325h8.039L272.672,31.174z"/>
	</g>
	<polygon fill="#FFFFFF" points="31.273,53.802 39.244,53.802 50.677,21.332 42.707,21.332 	"/>
	<polygon fill="#FFFFFF" points="58.03,53.802 66,53.802 77.435,21.332 69.464,21.332 	"/>
	<polygon fill="#FFFFFF" points="71.408,53.802 79.38,53.802 90.812,21.332 82.842,21.332 	"/>
	<polygon fill="#FFFFFF" points="93.302,26.062 89.317,37.382 95.099,53.802 103.07,53.802 	"/>
	<polygon fill="#FFFFFF" points="28.783,49.072 32.769,37.753 26.987,21.332 19.016,21.332 	"/>
	<polygon fill="#FFFFFF" points="56.085,21.408 47.219,46.763 49.786,54.228 52.622,54.228 64.055,21.408 	"/>
</g>
</svg>
