<?xml version="1.0" encoding="utf-8"?>
<!-- Generator: Adobe Illustrator 16.0.0, SVG Export Plug-In . SVG Version: 6.00 Build 0)  -->
<!DOCTYPE svg PUBLIC "-//W3C//DTD SVG 1.1//EN" "http://www.w3.org/Graphics/SVG/1.1/DTD/svg11.dtd">
<svg version="1.1" id="Capa_1" xmlns="http://www.w3.org/2000/svg" xmlns:xlink="http://www.w3.org/1999/xlink" x="0px" y="0px"
	 width="77.333px" height="74px" viewBox="0 0 77.333 74" enable-background="new 0 0 77.333 74" xml:space="preserve">
<g>
	<polygon fill="none" stroke="#FFFFFF" stroke-width="0.2" stroke-miterlimit="10" points="-71.854,36.39 -63.883,36.39 
		-52.45,3.919 -60.42,3.919 	"/>
	<polygon fill="none" stroke="#FFFFFF" stroke-width="0.2" stroke-miterlimit="10" points="-45.097,36.39 -37.126,36.39 
		-25.692,3.919 -33.663,3.919 	"/>
	<polygon fill="none" stroke="#FFFFFF" stroke-width="0.2" stroke-miterlimit="10" points="-31.719,36.39 -23.747,36.39 
		-12.314,3.919 -20.285,3.919 	"/>
	<polygon fill="none" stroke="#FFFFFF" stroke-width="0.2" stroke-miterlimit="10" points="-9.825,8.649 -13.81,19.969 
		-8.028,36.39 -0.057,36.39 	"/>
	<polygon fill="none" stroke="#FFFFFF" stroke-width="0.2" stroke-miterlimit="10" points="-74.344,31.659 -70.358,20.341 
		-76.14,3.919 -84.111,3.919 	"/>
	<polygon fill="none" stroke="#FFFFFF" stroke-width="0.2" stroke-miterlimit="10" points="-47.042,3.995 -55.908,29.35 
		-53.341,36.815 -50.505,36.815 -39.072,3.995 	"/>
</g>
<g>
	<polygon fill="none" stroke="#FFFFFF" stroke-width="0.2" stroke-miterlimit="10" points="5.479,36.39 13.45,36.39 24.883,3.919 
		16.913,3.919 	"/>
	<polygon fill="none" stroke="#FFFFFF" stroke-width="0.2" stroke-miterlimit="10" points="32.236,36.39 40.207,36.39 51.641,3.919 
		43.67,3.919 	"/>
	<polygon fill="none" stroke="#FFFFFF" stroke-width="0.2" stroke-miterlimit="10" points="45.614,36.39 53.586,36.39 65.019,3.919 
		57.048,3.919 	"/>
	<polygon fill="none" stroke="#FFFFFF" stroke-width="0.2" stroke-miterlimit="10" points="67.508,8.649 63.523,19.969 
		69.305,36.39 77.276,36.39 	"/>
	<polygon fill="none" stroke="#FFFFFF" stroke-width="0.2" stroke-miterlimit="10" points="2.989,31.659 6.975,20.341 1.193,3.919 
		-6.778,3.919 	"/>
	<polygon fill="none" stroke="#FFFFFF" stroke-width="0.2" stroke-miterlimit="10" points="30.291,3.995 21.425,29.35 
		23.992,36.815 26.828,36.815 38.261,3.995 	"/>
</g>
<g>
	<polygon fill="none" stroke="#FFFFFF" stroke-width="0.2" stroke-miterlimit="10" points="82.812,36.39 90.783,36.39 
		102.215,3.919 94.246,3.919 	"/>
	<polygon fill="none" stroke="#FFFFFF" stroke-width="0.2" stroke-miterlimit="10" points="109.569,36.39 117.54,36.39 
		128.973,3.919 121.002,3.919 	"/>
	<polygon fill="none" stroke="#FFFFFF" stroke-width="0.2" stroke-miterlimit="10" points="122.948,36.39 130.918,36.39 
		142.352,3.919 134.381,3.919 	"/>
	<polygon fill="none" stroke="#FFFFFF" stroke-width="0.2" stroke-miterlimit="10" points="144.84,8.649 140.856,19.969 
		146.638,36.39 154.609,36.39 	"/>
	<polygon fill="none" stroke="#FFFFFF" stroke-width="0.2" stroke-miterlimit="10" points="80.322,31.659 84.308,20.341 
		78.526,3.919 70.555,3.919 	"/>
	<polygon fill="none" stroke="#FFFFFF" stroke-width="0.2" stroke-miterlimit="10" points="107.624,3.995 98.758,29.35 
		101.325,36.815 104.161,36.815 115.594,3.995 	"/>
</g>
<g>
	<polygon fill="none" stroke="#FFFFFF" stroke-width="0.2" stroke-miterlimit="10" points="160.145,36.39 168.116,36.39 
		179.548,3.919 171.579,3.919 	"/>
	<polygon fill="none" stroke="#FFFFFF" stroke-width="0.2" stroke-miterlimit="10" points="186.902,36.39 194.873,36.39 
		206.306,3.919 198.335,3.919 	"/>
	<polygon fill="none" stroke="#FFFFFF" stroke-width="0.2" stroke-miterlimit="10" points="200.281,36.39 208.251,36.39 
		219.685,3.919 211.714,3.919 	"/>
	<polygon fill="none" stroke="#FFFFFF" stroke-width="0.2" stroke-miterlimit="10" points="222.173,8.649 218.189,19.969 
		223.971,36.39 231.942,36.39 	"/>
	<polygon fill="none" stroke="#FFFFFF" stroke-width="0.2" stroke-miterlimit="10" points="157.655,31.659 161.641,20.341 
		155.859,3.919 147.888,3.919 	"/>
	<polygon fill="none" stroke="#FFFFFF" stroke-width="0.2" stroke-miterlimit="10" points="184.957,3.995 176.091,29.35 
		178.658,36.815 181.494,36.815 192.927,3.995 	"/>
</g>
<g>
	<polygon fill="none" stroke="#FFFFFF" stroke-width="0.2" stroke-miterlimit="10" points="237.478,36.39 245.449,36.39 
		256.881,3.919 248.912,3.919 	"/>
	<polygon fill="none" stroke="#FFFFFF" stroke-width="0.2" stroke-miterlimit="10" points="264.235,36.39 272.206,36.39 
		283.639,3.919 275.668,3.919 	"/>
	<polygon fill="none" stroke="#FFFFFF" stroke-width="0.2" stroke-miterlimit="10" points="277.614,36.39 285.584,36.39 
		297.018,3.919 289.047,3.919 	"/>
	<polygon fill="none" stroke="#FFFFFF" stroke-width="0.2" stroke-miterlimit="10" points="299.506,8.649 295.522,19.969 
		301.304,36.39 309.275,36.39 	"/>
	<polygon fill="none" stroke="#FFFFFF" stroke-width="0.2" stroke-miterlimit="10" points="234.988,31.659 238.974,20.341 
		233.192,3.919 225.221,3.919 	"/>
	<polygon fill="none" stroke="#FFFFFF" stroke-width="0.2" stroke-miterlimit="10" points="262.29,3.995 253.424,29.35 
		255.991,36.815 258.827,36.815 270.26,3.995 	"/>
</g>
<g>
	<polygon fill="none" stroke="#FFFFFF" stroke-width="0.2" stroke-miterlimit="10" points="314.811,36.39 322.782,36.39 
		334.214,3.919 326.245,3.919 	"/>
	<polygon fill="none" stroke="#FFFFFF" stroke-width="0.2" stroke-miterlimit="10" points="341.568,36.39 349.539,36.39 
		360.972,3.919 353.001,3.919 	"/>
	<polygon fill="none" stroke="#FFFFFF" stroke-width="0.2" stroke-miterlimit="10" points="354.947,36.39 362.917,36.39 
		374.351,3.919 366.38,3.919 	"/>
	<polygon fill="none" stroke="#FFFFFF" stroke-width="0.2" stroke-miterlimit="10" points="376.839,8.649 372.855,19.969 
		378.637,36.39 386.608,36.39 	"/>
	<polygon fill="none" stroke="#FFFFFF" stroke-width="0.2" stroke-miterlimit="10" points="312.321,31.659 316.307,20.341 
		310.525,3.919 302.554,3.919 	"/>
	<polygon fill="none" stroke="#FFFFFF" stroke-width="0.2" stroke-miterlimit="10" points="339.623,3.995 330.757,29.35 
		333.324,36.815 336.16,36.815 347.593,3.995 	"/>
</g>
<g>
	<polygon fill="none" stroke="#FFFFFF" stroke-width="0.2" stroke-miterlimit="10" points="392.144,36.39 400.115,36.39 
		411.547,3.919 403.578,3.919 	"/>
	<polygon fill="none" stroke="#FFFFFF" stroke-width="0.2" stroke-miterlimit="10" points="418.901,36.39 426.872,36.39 
		438.305,3.919 430.334,3.919 	"/>
	<polygon fill="none" stroke="#FFFFFF" stroke-width="0.2" stroke-miterlimit="10" points="432.28,36.39 440.25,36.39 
		451.684,3.919 443.713,3.919 	"/>
	<polygon fill="none" stroke="#FFFFFF" stroke-width="0.2" stroke-miterlimit="10" points="454.172,8.649 450.188,19.969 
		455.97,36.39 463.941,36.39 	"/>
	<polygon fill="none" stroke="#FFFFFF" stroke-width="0.2" stroke-miterlimit="10" points="389.654,31.659 393.64,20.341 
		387.858,3.919 379.887,3.919 	"/>
	<polygon fill="none" stroke="#FFFFFF" stroke-width="0.2" stroke-miterlimit="10" points="416.956,3.995 408.09,29.35 
		410.657,36.815 413.493,36.815 424.926,3.995 	"/>
</g>
<g>
	<polygon fill="none" stroke="#FFFFFF" stroke-width="0.2" stroke-miterlimit="10" points="469.477,36.39 477.448,36.39 
		488.88,3.919 480.911,3.919 	"/>
	<polygon fill="none" stroke="#FFFFFF" stroke-width="0.2" stroke-miterlimit="10" points="496.234,36.39 504.205,36.39 
		515.638,3.919 507.667,3.919 	"/>
	<polygon fill="none" stroke="#FFFFFF" stroke-width="0.2" stroke-miterlimit="10" points="509.613,36.39 517.583,36.39 
		529.017,3.919 521.046,3.919 	"/>
	<polygon fill="none" stroke="#FFFFFF" stroke-width="0.2" stroke-miterlimit="10" points="531.505,8.649 527.521,19.969 
		533.303,36.39 541.274,36.39 	"/>
	<polygon fill="none" stroke="#FFFFFF" stroke-width="0.2" stroke-miterlimit="10" points="466.987,31.659 470.973,20.341 
		465.191,3.919 457.22,3.919 	"/>
	<polygon fill="none" stroke="#FFFFFF" stroke-width="0.2" stroke-miterlimit="10" points="494.289,3.995 485.423,29.35 
		487.99,36.815 490.826,36.815 502.259,3.995 	"/>
</g>
<g>
	<polygon fill="none" stroke="#FFFFFF" stroke-width="0.2" stroke-miterlimit="10" points="546.81,36.39 554.781,36.39 
		566.213,3.919 558.244,3.919 	"/>
	<polygon fill="none" stroke="#FFFFFF" stroke-width="0.2" stroke-miterlimit="10" points="573.567,36.39 581.538,36.39 
		592.971,3.919 585,3.919 	"/>
	<polygon fill="none" stroke="#FFFFFF" stroke-width="0.2" stroke-miterlimit="10" points="586.946,36.39 594.917,36.39 
		606.35,3.919 598.379,3.919 	"/>
	<polygon fill="none" stroke="#FFFFFF" stroke-width="0.2" stroke-miterlimit="10" points="608.838,8.649 604.854,19.969 
		610.636,36.39 618.607,36.39 	"/>
	<polygon fill="none" stroke="#FFFFFF" stroke-width="0.2" stroke-miterlimit="10" points="544.32,31.659 548.306,20.341 
		542.524,3.919 534.553,3.919 	"/>
	<polygon fill="none" stroke="#FFFFFF" stroke-width="0.2" stroke-miterlimit="10" points="571.622,3.995 562.756,29.35 
		565.323,36.815 568.159,36.815 579.592,3.995 	"/>
</g>
<g>
	<polygon fill="none" stroke="#FFFFFF" stroke-width="0.2" stroke-miterlimit="10" points="624.143,36.39 632.114,36.39 
		643.546,3.919 635.577,3.919 	"/>
	<polygon fill="none" stroke="#FFFFFF" stroke-width="0.2" stroke-miterlimit="10" points="650.9,36.39 658.871,36.39 
		670.304,3.919 662.333,3.919 	"/>
	<polygon fill="none" stroke="#FFFFFF" stroke-width="0.2" stroke-miterlimit="10" points="664.279,36.39 672.25,36.39 
		683.683,3.919 675.712,3.919 	"/>
	<polygon fill="none" stroke="#FFFFFF" stroke-width="0.2" stroke-miterlimit="10" points="686.171,8.649 682.187,19.969 
		687.969,36.39 695.94,36.39 	"/>
	<polygon fill="none" stroke="#FFFFFF" stroke-width="0.2" stroke-miterlimit="10" points="621.653,31.659 625.639,20.341 
		619.857,3.919 611.886,3.919 	"/>
	<polygon fill="none" stroke="#FFFFFF" stroke-width="0.2" stroke-miterlimit="10" points="648.955,3.995 640.089,29.35 
		642.656,36.815 645.492,36.815 656.925,3.995 	"/>
</g>
<g>
	<polygon fill="none" stroke="#FFFFFF" stroke-width="0.2" stroke-miterlimit="10" points="701.476,36.39 709.447,36.39 
		720.879,3.919 712.91,3.919 	"/>
	<polygon fill="none" stroke="#FFFFFF" stroke-width="0.2" stroke-miterlimit="10" points="728.233,36.39 736.204,36.39 
		747.637,3.919 739.667,3.919 	"/>
	<polygon fill="none" stroke="#FFFFFF" stroke-width="0.2" stroke-miterlimit="10" points="741.612,36.39 749.583,36.39 
		761.016,3.919 753.045,3.919 	"/>
	<polygon fill="none" stroke="#FFFFFF" stroke-width="0.2" stroke-miterlimit="10" points="763.504,8.649 759.52,19.969 
		765.302,36.39 773.273,36.39 	"/>
	<polygon fill="none" stroke="#FFFFFF" stroke-width="0.2" stroke-miterlimit="10" points="698.986,31.659 702.972,20.341 
		697.19,3.919 689.219,3.919 	"/>
	<polygon fill="none" stroke="#FFFFFF" stroke-width="0.2" stroke-miterlimit="10" points="726.288,3.995 717.422,29.35 
		719.989,36.815 722.825,36.815 734.258,3.995 	"/>
</g>
<g>
	<polygon fill="none" stroke="#FFFFFF" stroke-width="0.2" stroke-miterlimit="10" points="778.809,36.39 786.78,36.39 
		798.212,3.919 790.243,3.919 	"/>
	<polygon fill="none" stroke="#FFFFFF" stroke-width="0.2" stroke-miterlimit="10" points="805.566,36.39 813.537,36.39 
		824.97,3.919 817,3.919 	"/>
	<polygon fill="none" stroke="#FFFFFF" stroke-width="0.2" stroke-miterlimit="10" points="818.945,36.39 826.916,36.39 
		838.349,3.919 830.378,3.919 	"/>
	<polygon fill="none" stroke="#FFFFFF" stroke-width="0.2" stroke-miterlimit="10" points="840.837,8.649 836.853,19.969 
		842.635,36.39 850.606,36.39 	"/>
	<polygon fill="none" stroke="#FFFFFF" stroke-width="0.2" stroke-miterlimit="10" points="776.319,31.659 780.305,20.341 
		774.523,3.919 766.552,3.919 	"/>
	<polygon fill="none" stroke="#FFFFFF" stroke-width="0.2" stroke-miterlimit="10" points="803.621,3.995 794.755,29.35 
		797.322,36.815 800.158,36.815 811.591,3.995 	"/>
</g>
<g>
	<polygon fill="none" stroke="#FFFFFF" stroke-width="0.2" stroke-miterlimit="10" points="856.142,36.39 864.113,36.39 
		875.545,3.919 867.576,3.919 	"/>
	<polygon fill="none" stroke="#FFFFFF" stroke-width="0.2" stroke-miterlimit="10" points="882.899,36.39 890.87,36.39 
		902.303,3.919 894.333,3.919 	"/>
	<polygon fill="none" stroke="#FFFFFF" stroke-width="0.2" stroke-miterlimit="10" points="896.278,36.39 904.249,36.39 
		915.682,3.919 907.711,3.919 	"/>
	<polygon fill="none" stroke="#FFFFFF" stroke-width="0.2" stroke-miterlimit="10" points="918.17,8.649 914.186,19.969 
		919.968,36.39 927.939,36.39 	"/>
	<polygon fill="none" stroke="#FFFFFF" stroke-width="0.2" stroke-miterlimit="10" points="853.652,31.659 857.638,20.341 
		851.856,3.919 843.885,3.919 	"/>
	<polygon fill="none" stroke="#FFFFFF" stroke-width="0.2" stroke-miterlimit="10" points="880.954,3.995 872.088,29.35 
		874.655,36.815 877.491,36.815 888.924,3.995 	"/>
</g>
<g>
	<polygon fill="none" stroke="#FFFFFF" stroke-width="0.2" stroke-miterlimit="10" points="933.475,36.39 941.446,36.39 
		952.878,3.919 944.909,3.919 	"/>
	<polygon fill="none" stroke="#FFFFFF" stroke-width="0.2" stroke-miterlimit="10" points="960.232,36.39 968.203,36.39 
		979.636,3.919 971.666,3.919 	"/>
	<polygon fill="none" stroke="#FFFFFF" stroke-width="0.2" stroke-miterlimit="10" points="973.611,36.39 981.582,36.39 
		993.015,3.919 985.044,3.919 	"/>
	<polygon fill="none" stroke="#FFFFFF" stroke-width="0.2" stroke-miterlimit="10" points="995.503,8.649 991.519,19.969 
		997.301,36.39 1005.272,36.39 	"/>
	<polygon fill="none" stroke="#FFFFFF" stroke-width="0.2" stroke-miterlimit="10" points="930.985,31.659 934.971,20.341 
		929.189,3.919 921.218,3.919 	"/>
	<polygon fill="none" stroke="#FFFFFF" stroke-width="0.2" stroke-miterlimit="10" points="958.287,3.995 949.421,29.35 
		951.988,36.815 954.824,36.815 966.257,3.995 	"/>
</g>
<g>
	<polygon fill="none" stroke="#FFFFFF" stroke-width="0.2" stroke-miterlimit="10" points="-18.854,72.39 -10.883,72.39 
		0.55,39.919 -7.42,39.919 	"/>
	<polygon fill="none" stroke="#FFFFFF" stroke-width="0.2" stroke-miterlimit="10" points="7.903,72.39 15.874,72.39 27.308,39.919 
		19.337,39.919 	"/>
	<polygon fill="none" stroke="#FFFFFF" stroke-width="0.2" stroke-miterlimit="10" points="21.281,72.39 29.253,72.39 
		40.686,39.919 32.715,39.919 	"/>
	<polygon fill="none" stroke="#FFFFFF" stroke-width="0.2" stroke-miterlimit="10" points="43.175,44.649 39.19,55.969 
		44.972,72.39 52.943,72.39 	"/>
	<polygon fill="none" stroke="#FFFFFF" stroke-width="0.2" stroke-miterlimit="10" points="-21.344,67.659 -17.358,56.341 
		-23.14,39.919 -31.111,39.919 	"/>
	<polygon fill="none" stroke="#FFFFFF" stroke-width="0.2" stroke-miterlimit="10" points="5.958,39.995 -2.908,65.35 
		-0.341,72.815 2.495,72.815 13.928,39.995 	"/>
</g>
<g>
	<polygon fill="none" stroke="#FFFFFF" stroke-width="0.2" stroke-miterlimit="10" points="58.479,72.39 66.45,72.39 77.883,39.919 
		69.913,39.919 	"/>
	<polygon fill="none" stroke="#FFFFFF" stroke-width="0.2" stroke-miterlimit="10" points="85.236,72.39 93.207,72.39 
		104.641,39.919 96.67,39.919 	"/>
	<polygon fill="none" stroke="#FFFFFF" stroke-width="0.2" stroke-miterlimit="10" points="98.614,72.39 106.586,72.39 
		118.018,39.919 110.047,39.919 	"/>
	<polygon fill="none" stroke="#FFFFFF" stroke-width="0.2" stroke-miterlimit="10" points="120.508,44.649 116.524,55.969 
		122.305,72.39 130.276,72.39 	"/>
	<polygon fill="none" stroke="#FFFFFF" stroke-width="0.2" stroke-miterlimit="10" points="55.989,67.659 59.975,56.341 
		54.193,39.919 46.222,39.919 	"/>
	<polygon fill="none" stroke="#FFFFFF" stroke-width="0.2" stroke-miterlimit="10" points="83.291,39.995 74.425,65.35 
		76.992,72.815 79.828,72.815 91.261,39.995 	"/>
</g>
<g>
	<polygon fill="none" stroke="#FFFFFF" stroke-width="0.2" stroke-miterlimit="10" points="135.813,72.39 143.783,72.39 
		155.215,39.919 147.246,39.919 	"/>
	<polygon fill="none" stroke="#FFFFFF" stroke-width="0.2" stroke-miterlimit="10" points="162.569,72.39 170.54,72.39 
		181.973,39.919 174.002,39.919 	"/>
	<polygon fill="none" stroke="#FFFFFF" stroke-width="0.2" stroke-miterlimit="10" points="175.948,72.39 183.918,72.39 
		195.352,39.919 187.381,39.919 	"/>
	<polygon fill="none" stroke="#FFFFFF" stroke-width="0.2" stroke-miterlimit="10" points="197.84,44.649 193.856,55.969 
		199.638,72.39 207.609,72.39 	"/>
	<polygon fill="none" stroke="#FFFFFF" stroke-width="0.2" stroke-miterlimit="10" points="133.322,67.659 137.308,56.341 
		131.526,39.919 123.555,39.919 	"/>
	<polygon fill="none" stroke="#FFFFFF" stroke-width="0.2" stroke-miterlimit="10" points="160.624,39.995 151.758,65.35 
		154.325,72.815 157.161,72.815 168.594,39.995 	"/>
</g>
<g>
	<polygon fill="none" stroke="#FFFFFF" stroke-width="0.2" stroke-miterlimit="10" points="213.145,72.39 221.116,72.39 
		232.548,39.919 224.579,39.919 	"/>
	<polygon fill="none" stroke="#FFFFFF" stroke-width="0.2" stroke-miterlimit="10" points="239.902,72.39 247.873,72.39 
		259.306,39.919 251.335,39.919 	"/>
	<polygon fill="none" stroke="#FFFFFF" stroke-width="0.2" stroke-miterlimit="10" points="253.281,72.39 261.251,72.39 
		272.685,39.919 264.714,39.919 	"/>
	<polygon fill="none" stroke="#FFFFFF" stroke-width="0.2" stroke-miterlimit="10" points="275.173,44.649 271.189,55.969 
		276.971,72.39 284.942,72.39 	"/>
	<polygon fill="none" stroke="#FFFFFF" stroke-width="0.2" stroke-miterlimit="10" points="210.655,67.659 214.641,56.341 
		208.859,39.919 200.888,39.919 	"/>
	<polygon fill="none" stroke="#FFFFFF" stroke-width="0.2" stroke-miterlimit="10" points="237.957,39.995 229.091,65.35 
		231.658,72.815 234.494,72.815 245.927,39.995 	"/>
</g>
<g>
	<polygon fill="none" stroke="#FFFFFF" stroke-width="0.2" stroke-miterlimit="10" points="290.478,72.39 298.449,72.39 
		309.881,39.919 301.912,39.919 	"/>
	<polygon fill="none" stroke="#FFFFFF" stroke-width="0.2" stroke-miterlimit="10" points="317.235,72.39 325.206,72.39 
		336.639,39.919 328.668,39.919 	"/>
	<polygon fill="none" stroke="#FFFFFF" stroke-width="0.2" stroke-miterlimit="10" points="330.614,72.39 338.584,72.39 
		350.018,39.919 342.047,39.919 	"/>
	<polygon fill="none" stroke="#FFFFFF" stroke-width="0.2" stroke-miterlimit="10" points="352.506,44.649 348.522,55.969 
		354.304,72.39 362.275,72.39 	"/>
	<polygon fill="none" stroke="#FFFFFF" stroke-width="0.2" stroke-miterlimit="10" points="287.988,67.659 291.974,56.341 
		286.192,39.919 278.221,39.919 	"/>
	<polygon fill="none" stroke="#FFFFFF" stroke-width="0.2" stroke-miterlimit="10" points="315.29,39.995 306.424,65.35 
		308.991,72.815 311.827,72.815 323.26,39.995 	"/>
</g>
<g>
	<polygon fill="none" stroke="#FFFFFF" stroke-width="0.2" stroke-miterlimit="10" points="367.811,72.39 375.782,72.39 
		387.214,39.919 379.245,39.919 	"/>
	<polygon fill="none" stroke="#FFFFFF" stroke-width="0.2" stroke-miterlimit="10" points="394.568,72.39 402.539,72.39 
		413.972,39.919 406.001,39.919 	"/>
	<polygon fill="none" stroke="#FFFFFF" stroke-width="0.2" stroke-miterlimit="10" points="407.947,72.39 415.917,72.39 
		427.351,39.919 419.38,39.919 	"/>
	<polygon fill="none" stroke="#FFFFFF" stroke-width="0.2" stroke-miterlimit="10" points="429.839,44.649 425.855,55.969 
		431.637,72.39 439.608,72.39 	"/>
	<polygon fill="none" stroke="#FFFFFF" stroke-width="0.2" stroke-miterlimit="10" points="365.321,67.659 369.307,56.341 
		363.525,39.919 355.554,39.919 	"/>
	<polygon fill="none" stroke="#FFFFFF" stroke-width="0.2" stroke-miterlimit="10" points="392.623,39.995 383.757,65.35 
		386.324,72.815 389.16,72.815 400.593,39.995 	"/>
</g>
<g>
	<polygon fill="none" stroke="#FFFFFF" stroke-width="0.2" stroke-miterlimit="10" points="445.144,72.39 453.115,72.39 
		464.547,39.919 456.578,39.919 	"/>
	<polygon fill="none" stroke="#FFFFFF" stroke-width="0.2" stroke-miterlimit="10" points="471.901,72.39 479.872,72.39 
		491.305,39.919 483.334,39.919 	"/>
	<polygon fill="none" stroke="#FFFFFF" stroke-width="0.2" stroke-miterlimit="10" points="485.28,72.39 493.25,72.39 
		504.684,39.919 496.713,39.919 	"/>
	<polygon fill="none" stroke="#FFFFFF" stroke-width="0.2" stroke-miterlimit="10" points="507.172,44.649 503.188,55.969 
		508.97,72.39 516.941,72.39 	"/>
	<polygon fill="none" stroke="#FFFFFF" stroke-width="0.2" stroke-miterlimit="10" points="442.654,67.659 446.64,56.341 
		440.858,39.919 432.887,39.919 	"/>
	<polygon fill="none" stroke="#FFFFFF" stroke-width="0.2" stroke-miterlimit="10" points="469.956,39.995 461.09,65.35 
		463.657,72.815 466.493,72.815 477.926,39.995 	"/>
</g>
<g>
	<polygon fill="none" stroke="#FFFFFF" stroke-width="0.2" stroke-miterlimit="10" points="522.477,72.39 530.448,72.39 
		541.88,39.919 533.911,39.919 	"/>
	<polygon fill="none" stroke="#FFFFFF" stroke-width="0.2" stroke-miterlimit="10" points="549.234,72.39 557.205,72.39 
		568.638,39.919 560.667,39.919 	"/>
	<polygon fill="none" stroke="#FFFFFF" stroke-width="0.2" stroke-miterlimit="10" points="562.613,72.39 570.583,72.39 
		582.017,39.919 574.046,39.919 	"/>
	<polygon fill="none" stroke="#FFFFFF" stroke-width="0.2" stroke-miterlimit="10" points="584.505,44.649 580.521,55.969 
		586.303,72.39 594.274,72.39 	"/>
	<polygon fill="none" stroke="#FFFFFF" stroke-width="0.2" stroke-miterlimit="10" points="519.987,67.659 523.973,56.341 
		518.191,39.919 510.22,39.919 	"/>
	<polygon fill="none" stroke="#FFFFFF" stroke-width="0.2" stroke-miterlimit="10" points="547.289,39.995 538.423,65.35 
		540.99,72.815 543.826,72.815 555.259,39.995 	"/>
</g>
<g>
	<polygon fill="none" stroke="#FFFFFF" stroke-width="0.2" stroke-miterlimit="10" points="599.81,72.39 607.781,72.39 
		619.213,39.919 611.244,39.919 	"/>
	<polygon fill="none" stroke="#FFFFFF" stroke-width="0.2" stroke-miterlimit="10" points="626.567,72.39 634.538,72.39 
		645.971,39.919 638,39.919 	"/>
	<polygon fill="none" stroke="#FFFFFF" stroke-width="0.2" stroke-miterlimit="10" points="639.946,72.39 647.917,72.39 
		659.35,39.919 651.379,39.919 	"/>
	<polygon fill="none" stroke="#FFFFFF" stroke-width="0.2" stroke-miterlimit="10" points="661.838,44.649 657.854,55.969 
		663.636,72.39 671.607,72.39 	"/>
	<polygon fill="none" stroke="#FFFFFF" stroke-width="0.2" stroke-miterlimit="10" points="597.32,67.659 601.306,56.341 
		595.524,39.919 587.553,39.919 	"/>
	<polygon fill="none" stroke="#FFFFFF" stroke-width="0.2" stroke-miterlimit="10" points="624.622,39.995 615.756,65.35 
		618.323,72.815 621.159,72.815 632.592,39.995 	"/>
</g>
<g>
	<polygon fill="none" stroke="#FFFFFF" stroke-width="0.2" stroke-miterlimit="10" points="677.143,72.39 685.114,72.39 
		696.546,39.919 688.577,39.919 	"/>
	<polygon fill="none" stroke="#FFFFFF" stroke-width="0.2" stroke-miterlimit="10" points="703.9,72.39 711.871,72.39 
		723.304,39.919 715.333,39.919 	"/>
	<polygon fill="none" stroke="#FFFFFF" stroke-width="0.2" stroke-miterlimit="10" points="717.279,72.39 725.25,72.39 
		736.683,39.919 728.712,39.919 	"/>
	<polygon fill="none" stroke="#FFFFFF" stroke-width="0.2" stroke-miterlimit="10" points="739.171,44.649 735.187,55.969 
		740.969,72.39 748.94,72.39 	"/>
	<polygon fill="none" stroke="#FFFFFF" stroke-width="0.2" stroke-miterlimit="10" points="674.653,67.659 678.639,56.341 
		672.857,39.919 664.886,39.919 	"/>
	<polygon fill="none" stroke="#FFFFFF" stroke-width="0.2" stroke-miterlimit="10" points="701.955,39.995 693.089,65.35 
		695.656,72.815 698.492,72.815 709.925,39.995 	"/>
</g>
<g>
	<polygon fill="none" stroke="#FFFFFF" stroke-width="0.2" stroke-miterlimit="10" points="754.476,72.39 762.447,72.39 
		773.879,39.919 765.91,39.919 	"/>
	<polygon fill="none" stroke="#FFFFFF" stroke-width="0.2" stroke-miterlimit="10" points="781.233,72.39 789.204,72.39 
		800.637,39.919 792.667,39.919 	"/>
	<polygon fill="none" stroke="#FFFFFF" stroke-width="0.2" stroke-miterlimit="10" points="794.612,72.39 802.583,72.39 
		814.016,39.919 806.045,39.919 	"/>
	<polygon fill="none" stroke="#FFFFFF" stroke-width="0.2" stroke-miterlimit="10" points="816.504,44.649 812.52,55.969 
		818.302,72.39 826.273,72.39 	"/>
	<polygon fill="none" stroke="#FFFFFF" stroke-width="0.2" stroke-miterlimit="10" points="751.986,67.659 755.972,56.341 
		750.19,39.919 742.219,39.919 	"/>
	<polygon fill="none" stroke="#FFFFFF" stroke-width="0.2" stroke-miterlimit="10" points="779.288,39.995 770.422,65.35 
		772.989,72.815 775.825,72.815 787.258,39.995 	"/>
</g>
<g>
	<polygon fill="none" stroke="#FFFFFF" stroke-width="0.2" stroke-miterlimit="10" points="831.809,72.39 839.78,72.39 
		851.212,39.919 843.243,39.919 	"/>
	<polygon fill="none" stroke="#FFFFFF" stroke-width="0.2" stroke-miterlimit="10" points="858.566,72.39 866.537,72.39 
		877.97,39.919 870,39.919 	"/>
	<polygon fill="none" stroke="#FFFFFF" stroke-width="0.2" stroke-miterlimit="10" points="871.945,72.39 879.916,72.39 
		891.349,39.919 883.378,39.919 	"/>
	<polygon fill="none" stroke="#FFFFFF" stroke-width="0.2" stroke-miterlimit="10" points="893.837,44.649 889.853,55.969 
		895.635,72.39 903.606,72.39 	"/>
	<polygon fill="none" stroke="#FFFFFF" stroke-width="0.2" stroke-miterlimit="10" points="829.319,67.659 833.305,56.341 
		827.523,39.919 819.552,39.919 	"/>
	<polygon fill="none" stroke="#FFFFFF" stroke-width="0.2" stroke-miterlimit="10" points="856.621,39.995 847.755,65.35 
		850.322,72.815 853.158,72.815 864.591,39.995 	"/>
</g>
<g>
	<polygon fill="none" stroke="#FFFFFF" stroke-width="0.2" stroke-miterlimit="10" points="909.142,72.39 917.113,72.39 
		928.545,39.919 920.576,39.919 	"/>
	<polygon fill="none" stroke="#FFFFFF" stroke-width="0.2" stroke-miterlimit="10" points="935.899,72.39 943.87,72.39 
		955.303,39.919 947.333,39.919 	"/>
	<polygon fill="none" stroke="#FFFFFF" stroke-width="0.2" stroke-miterlimit="10" points="949.278,72.39 957.249,72.39 
		968.682,39.919 960.711,39.919 	"/>
	<polygon fill="none" stroke="#FFFFFF" stroke-width="0.2" stroke-miterlimit="10" points="971.17,44.649 967.186,55.969 
		972.968,72.39 980.939,72.39 	"/>
	<polygon fill="none" stroke="#FFFFFF" stroke-width="0.2" stroke-miterlimit="10" points="906.652,67.659 910.638,56.341 
		904.856,39.919 896.885,39.919 	"/>
	<polygon fill="none" stroke="#FFFFFF" stroke-width="0.2" stroke-miterlimit="10" points="933.954,39.995 925.088,65.35 
		927.655,72.815 930.491,72.815 941.924,39.995 	"/>
</g>
<g>
	<polygon fill="none" stroke="#FFFFFF" stroke-width="0.2" stroke-miterlimit="10" points="986.475,72.39 994.446,72.39 
		1005.878,39.919 997.909,39.919 	"/>
	<polygon fill="none" stroke="#FFFFFF" stroke-width="0.2" stroke-miterlimit="10" points="1013.232,72.39 1021.203,72.39 
		1032.636,39.919 1024.666,39.919 	"/>
	<polygon fill="none" stroke="#FFFFFF" stroke-width="0.2" stroke-miterlimit="10" points="1026.611,72.39 1034.582,72.39 
		1046.015,39.919 1038.044,39.919 	"/>
	<polygon fill="none" stroke="#FFFFFF" stroke-width="0.2" stroke-miterlimit="10" points="1048.503,44.649 1044.519,55.969 
		1050.301,72.39 1058.272,72.39 	"/>
	<polygon fill="none" stroke="#FFFFFF" stroke-width="0.2" stroke-miterlimit="10" points="983.985,67.659 987.971,56.341 
		982.189,39.919 974.218,39.919 	"/>
	<polygon fill="none" stroke="#FFFFFF" stroke-width="0.2" stroke-miterlimit="10" points="1011.287,39.995 1002.421,65.35 
		1004.988,72.815 1007.824,72.815 1019.257,39.995 	"/>
</g>
</svg>
