<?xml version="1.0" encoding="utf-8"?>
<!-- Generator: Adobe Illustrator 16.0.0, SVG Export Plug-In . SVG Version: 6.00 Build 0)  -->
<!DOCTYPE svg PUBLIC "-//W3C//DTD SVG 1.1//EN" "http://www.w3.org/Graphics/SVG/1.1/DTD/svg11.dtd">
<svg version="1.1" id="Capa_1" xmlns="http://www.w3.org/2000/svg" xmlns:xlink="http://www.w3.org/1999/xlink" x="0px" y="0px"
	 width="1224px" height="246px" viewBox="0 0 1224 246" enable-background="new 0 0 1224 246" xml:space="preserve">
<g>
	<g>
		<path fill="#FFFFFF" d="M463.282,141.043l24.325-78.861h31.977l24.128,78.861l27.269-78.861h33.152l-47.865,137.125h-22.756
			l-30.015-95.34l-29.818,95.34h-22.756L403.058,62.182h33.153L463.282,141.043z"/>
		<path fill="#FFFFFF" d="M725.955,180.375c-13.866,13.536-30.931,20.305-51.2,20.305c-20.273,0-37.342-6.769-51.202-20.305
			c-13.862-13.535-20.793-30.373-20.793-50.514c0-20.138,6.931-36.979,20.793-50.514c13.86-13.536,30.928-20.304,51.202-20.304
			c20.271,0,37.334,6.768,51.2,20.304c13.861,13.536,20.793,30.376,20.793,50.514C746.748,150.002,739.816,166.84,725.955,180.375z
			 M715.557,129.959c0-12.227-3.924-22.658-11.769-31.29c-7.848-8.631-17.493-12.947-28.937-12.947
			c-11.445,0-21.089,4.316-28.937,12.947c-7.845,8.631-11.771,19.062-11.771,31.29c0,12.23,3.926,22.627,11.771,31.191
			c7.848,8.566,17.49,12.849,28.937,12.849c11.442,0,21.089-4.282,28.937-12.849C711.633,152.586,715.557,142.189,715.557,129.959z"
			/>
		<path fill="#FFFFFF" d="M876.221,107.694c0,21.971-8.697,36.164-26.091,42.57l34.721,49.043h-37.663l-30.407-43.746h-21.188
			v43.746h-30.602V62.182h51.982c21.317,0,36.521,3.598,45.61,10.789C871.675,80.166,876.221,91.74,876.221,107.694z
			 M839.339,123.977c3.794-3.399,5.69-8.794,5.69-16.185c0-7.388-1.962-12.457-5.887-15.204c-3.924-2.747-10.786-4.119-20.597-4.119
			h-22.953v40.607h22.363C828.418,129.076,835.546,127.378,839.339,123.977z"/>
		<path fill="#FFFFFF" d="M899.953,62.182h30.604v56.301l51.788-56.301h37.859l-54.535,60.617
			c4.709,6.542,13.403,18.734,26.091,36.586c12.686,17.852,22.168,31.161,28.444,39.922h-35.702l-40.216-54.144l-13.729,15.301
			v38.843h-30.604V62.182L899.953,62.182z"/>
		<path fill="#FFFFFF" d="M1031.584,62.182h30.604v137.125h-30.604V62.182z"/>
		<path fill="#FFFFFF" d="M1185.969,199.307l-12.753-29.623h-57.476l-12.752,29.623h-32.564l59.242-137.125h29.624l59.242,137.125
			H1185.969z M1144.576,102.985l-17.264,39.824h34.33L1144.576,102.985z"/>
	</g>
	<polygon fill="#FFFFFF" points="63.646,199.625 97.686,199.625 146.513,60.953 112.473,60.953 	"/>
	<polygon fill="#FFFFFF" points="177.916,199.625 211.953,199.625 260.785,60.953 226.746,60.953 	"/>
	<polygon fill="#FFFFFF" points="235.048,199.625 269.092,199.625 317.917,60.953 283.878,60.953 	"/>
	<polygon fill="#FFFFFF" points="328.548,81.153 311.531,129.499 336.224,199.625 370.263,199.625 	"/>
	<polygon fill="#FFFFFF" points="53.01,179.421 70.035,131.085 45.34,60.952 11.3,60.952 	"/>
	<polygon fill="#FFFFFF" points="169.609,61.279 131.745,169.561 142.708,201.441 154.816,201.441 203.646,61.279 	"/>
</g>
</svg>
